<?xml version="1.0" encoding="iso-8859-1"?>
<!-- Generator: Adobe Illustrator 19.0.0, SVG Export Plug-In . SVG Version: 6.00 Build 0)  -->
<svg version="1.1" id="Capa_1" xmlns="http://www.w3.org/2000/svg" xmlns:xlink="http://www.w3.org/1999/xlink" x="0px" y="0px"
	 viewBox="0 0 464 464" style="enable-background:new 0 0 464 464;" xml:space="preserve">
<path style="fill:#025A7A;" d="M232,0c66.56,28,141.44,44,208,16v194.112C440,420.224,232,464,232,464S24,420.224,24,210.112V16
	C90.56,44,165.44,28,232,0z"/>
<g>
	<path style="fill:#29ABE2;" d="M130.056,224H64.408c1.621,35.587,14.577,69.723,36.976,97.424
		c13.495-10.065,28.129-18.505,43.6-25.144C135.961,273.203,130.913,248.764,130.056,224L130.056,224z"/>
	<path style="fill:#29ABE2;" d="M151.408,310.92c-13.925,5.983-27.12,13.538-39.328,22.52
		c25.111,25.645,57.792,42.552,93.232,48.232C182.693,362.024,164.346,337.944,151.408,310.92L151.408,310.92z"/>
	<path style="fill:#29ABE2;" d="M145.6,134.4c-15.057-7.037-29.234-15.82-42.24-26.168C79.782,136.314,66.094,171.371,64.408,208
		h65.648C130.956,182.754,136.215,157.854,145.6,134.4z"/>
	<path style="fill:#29ABE2;" d="M333.944,208h65.648c-1.665-36.636-15.339-71.706-38.912-99.8
		c-13.006,10.346-27.183,19.126-42.24,26.16C327.815,157.829,333.06,182.743,333.944,208L333.944,208z"/>
	<path style="fill:#29ABE2;" d="M205.312,50.328c-34.432,5.51-66.288,21.624-91.128,46.096c11.703,9.188,24.418,17.01,37.896,23.312
		C164.972,93.253,183.077,69.645,205.312,50.328L205.312,50.328z"/>
	<path style="fill:#29ABE2;" d="M258.688,381.672c35.435-5.677,68.11-22.582,93.216-48.224
		c-12.223-8.955-25.429-16.487-39.36-22.448C299.614,337.993,281.284,362.046,258.688,381.672L258.688,381.672z"/>
	<path style="fill:#29ABE2;" d="M318.976,296.368c15.471,6.625,30.107,15.048,43.608,25.096
		c22.419-27.707,35.387-61.859,37.008-97.464h-65.648C333.086,248.796,328.025,273.266,318.976,296.368L318.976,296.368z"/>
	<path style="fill:#29ABE2;" d="M311.92,119.736c13.477-6.301,26.189-14.122,37.888-23.312
		c-24.836-24.473-56.69-40.588-91.12-46.096C280.921,69.647,299.026,93.254,311.92,119.736z"/>
</g>
<g>
	<path style="fill:#3593B5;" d="M240,224v54.912c21.789,0.727,43.352,4.651,64,11.648c8.355-21.246,13.071-43.747,13.952-66.56H240z
		"/>
	<path style="fill:#3593B5;" d="M146.048,224c0.877,22.829,5.594,45.346,13.952,66.608c20.644-7.015,42.209-10.95,64-11.68V224
		H146.048z"/>
	<path style="fill:#3593B5;" d="M224,208v-54.76c-21.766-0.797-43.267-5.052-63.696-12.608
		c-8.548,21.482-13.369,44.265-14.256,67.368H224z"/>
	<path style="fill:#3593B5;" d="M224,55.712c-24.087,18.8-43.618,42.797-57.136,70.2c18.349,6.684,37.623,10.486,57.136,11.272
		V55.712z"/>
	<path style="fill:#3593B5;" d="M317.952,208c-0.885-23.107-5.709-45.893-14.264-67.376c-20.423,7.564-41.923,11.82-63.688,12.608
		V208H317.952z"/>
	<path style="fill:#3593B5;" d="M240,376.288c24.327-18.989,44.002-43.277,57.528-71.016c-18.586-6.177-37.956-9.676-57.528-10.392
		V376.288z"/>
	<path style="fill:#3593B5;" d="M297.144,125.912C283.621,98.51,264.088,74.514,240,55.712v81.472
		C259.516,136.401,278.793,132.599,297.144,125.912z"/>
	<path style="fill:#3593B5;" d="M166.448,305.24c13.534,27.75,33.217,52.048,57.552,71.048V294.88
		C204.421,295.583,185.043,299.071,166.448,305.24z"/>
</g>
<path d="M232.032,32h-0.064H232H232.032z"/>
<g>
</g>
<g>
</g>
<g>
</g>
<g>
</g>
<g>
</g>
<g>
</g>
<g>
</g>
<g>
</g>
<g>
</g>
<g>
</g>
<g>
</g>
<g>
</g>
<g>
</g>
<g>
</g>
<g>
</g>
</svg>
