<?xml version="1.0" encoding="iso-8859-1"?>
<!-- Generator: Adobe Illustrator 19.0.0, SVG Export Plug-In . SVG Version: 6.00 Build 0)  -->
<svg version="1.1" id="Capa_1" xmlns="http://www.w3.org/2000/svg" xmlns:xlink="http://www.w3.org/1999/xlink" x="0px" y="0px"
	 viewBox="0 0 480 480" style="enable-background:new 0 0 480 480;" xml:space="preserve">
<circle style="fill:#025A7A;" cx="240" cy="163.992" r="152"/>
<path style="fill:#29485A;" d="M472,443.992H256c-0.685,0.045-1.36,0.183-2.008,0.408c-1.395-2.57-3.467-4.709-5.992-6.184v-82.224
	c0-4.418-3.582-8-8-8s-8,3.582-8,8v82.224c-2.525,1.475-4.597,3.614-5.992,6.184c-0.648-0.225-1.323-0.363-2.008-0.408H8
	c-4.418,0-8,3.582-8,8s3.582,8,8,8h216c0.685-0.045,1.36-0.183,2.008-0.408c4.102,7.732,13.695,10.675,21.427,6.573
	c2.799-1.485,5.088-3.774,6.573-6.573c0.643,0.224,1.313,0.361,1.992,0.408h216c4.418,0,8-3.582,8-8S476.418,443.992,472,443.992z"
	/>
<path style="fill:#3593B5;" d="M317.376,171.992H248v48.504c19.429,0.714,38.655,4.217,57.088,10.4
	C312.385,212.067,316.536,192.167,317.376,171.992z"/>
<g>
	<path style="fill:#29ABE2;" d="M333.376,155.992h58.216c-1.64-32.638-13.81-63.867-34.688-89.008
		c-11.535,9.131-24.075,16.915-37.376,23.2C327.825,111.181,332.507,133.431,333.376,155.992z"/>
	<path style="fill:#29ABE2;" d="M213.488,14.464c-29.988,5.309-57.681,19.526-79.472,40.8C144.234,63.217,155.295,70.023,167,75.56
		C178.399,52.38,194.187,31.631,213.488,14.464z"/>
</g>
<g>
	<path style="fill:#3593B5;" d="M248,19.808v71.776c17.128-0.776,34.042-4.119,50.176-9.92
		C286.177,57.623,269.049,36.508,248,19.808z"/>
	<path style="fill:#3593B5;" d="M162.624,155.992H232v-48.36c-19.403-0.786-38.565-4.586-56.8-11.264
		C167.722,115.405,163.472,135.556,162.624,155.992z"/>
</g>
<g>
	<path style="fill:#29ABE2;" d="M266.512,313.52c30.897-5.452,59.342-20.352,81.416-42.648c-10.689-7.772-22.201-14.345-34.328-19.6
		C302.157,274.92,286.154,296.074,266.512,313.52L266.512,313.52z"/>
	<path style="fill:#29ABE2;" d="M146.624,171.992H88.408c1.608,31.691,13.154,62.072,33,86.832
		c11.977-8.848,24.925-16.299,38.592-22.208C151.997,215.963,147.477,194.125,146.624,171.992L146.624,171.992z"/>
</g>
<path style="fill:#3593B5;" d="M232,308.176v-71.728c-17.198,0.676-34.221,3.726-50.584,9.064
	C193.437,269.883,210.713,291.285,232,308.176z"/>
<g>
	<path style="fill:#29ABE2;" d="M313,75.544c11.705-5.537,22.766-12.343,32.984-20.296c-21.792-21.272-49.485-35.49-79.472-40.8
		C285.815,31.613,301.603,52.362,313,75.544L313,75.544z"/>
	<path style="fill:#29ABE2;" d="M123.096,66.984c-20.878,25.141-33.048,56.37-34.688,89.008h58.216
		c0.867-22.568,5.546-44.826,13.84-65.832C147.167,83.88,134.63,76.105,123.096,66.984z"/>
	<path style="fill:#29ABE2;" d="M166.4,251.24c-12.133,5.261-23.648,11.845-34.336,19.632
		c22.077,22.296,50.525,37.196,81.424,42.648C193.846,296.061,177.844,274.897,166.4,251.24L166.4,251.24z"/>
	<path style="fill:#29ABE2;" d="M333.376,171.992c-0.849,22.146-5.37,43.998-13.376,64.664c13.651,5.909,26.583,13.357,38.544,22.2
		c19.87-24.763,31.433-55.156,33.048-86.864L333.376,171.992z"/>
</g>
<g>
	<path style="fill:#3593B5;" d="M174.912,230.904c18.431-6.192,37.658-9.698,57.088-10.408v-48.504h-69.376
		C163.463,192.17,167.614,212.073,174.912,230.904L174.912,230.904z"/>
	<path style="fill:#3593B5;" d="M298.536,245.592c-16.344-5.359-33.35-8.434-50.536-9.136v71.72
		C269.264,291.306,286.523,269.932,298.536,245.592L298.536,245.592z"/>
	<path style="fill:#3593B5;" d="M232,91.584V19.808c-21.051,16.703-38.182,37.821-50.184,61.864
		C197.955,87.466,214.871,90.807,232,91.584z"/>
	<path style="fill:#3593B5;" d="M248,107.632v48.36h69.376c-0.848-20.438-5.098-40.592-12.576-59.632
		C286.567,103.044,267.404,106.847,248,107.632L248,107.632z"/>
</g>
<g>
</g>
<g>
</g>
<g>
</g>
<g>
</g>
<g>
</g>
<g>
</g>
<g>
</g>
<g>
</g>
<g>
</g>
<g>
</g>
<g>
</g>
<g>
</g>
<g>
</g>
<g>
</g>
<g>
</g>
</svg>
