<?xml version="1.0" encoding="iso-8859-1"?>
<!-- Generator: Adobe Illustrator 19.0.0, SVG Export Plug-In . SVG Version: 6.00 Build 0)  -->
<svg version="1.1" id="Capa_1" xmlns="http://www.w3.org/2000/svg" xmlns:xlink="http://www.w3.org/1999/xlink" x="0px" y="0px"
	 viewBox="0 0 472 472" style="enable-background:new 0 0 472 472;" xml:space="preserve">
<path style="fill:#E6E6E6;" d="M44,336H20c-8.837,0-16-7.163-16-16V16C4,7.163,11.163,0,20,0h432c8.837,0,16,7.163,16,16v304
	c0,8.837-7.163,16-16,16H44z"/>
<g>
	<path style="fill:#29485A;" d="M228,306h16v59h-16V306z"/>
	<path style="fill:#29485A;" d="M460,456H244v-56h-16v56H12c-4.418,0-8,3.582-8,8s3.582,8,8,8h448c4.418,0,8-3.582,8-8
		S464.418,456,460,456z"/>
</g>
<path style="fill:#06AAE9;" d="M92,256h288c8.837,0,16,7.163,16,16v32c0,8.837-7.163,16-16,16H92c-8.837,0-16-7.163-16-16v-32
	C76,263.163,83.163,256,92,256z"/>
<path style="fill:#ED1C24;" d="M356,304c-8.837,0-16-7.163-16-16s7.163-16,16-16s16,7.163,16,16S364.837,304,356,304z"/>
<path style="fill:#E6E6E6;" d="M268,296H108c-4.418,0-8-3.582-8-8s3.582-8,8-8h160c4.418,0,8,3.582,8,8S272.418,296,268,296z"/>
<path style="fill:#F8CF26;" d="M320,296h-22.4c-4.418,0-8-3.582-8-8s3.582-8,8-8H320c4.418,0,8,3.582,8,8S324.418,296,320,296z"/>
<path style="fill:#3B6882;" d="M92,352h288c8.837,0,16,7.163,16,16v32c0,8.837-7.163,16-16,16H92c-8.837,0-16-7.163-16-16v-32
	C76,359.163,83.163,352,92,352z"/>
<path style="fill:#ED1C24;" d="M356,400c-8.837,0-16-7.163-16-16s7.163-16,16-16s16,7.163,16,16S364.837,400,356,400z"/>
<path style="fill:#E6E6E6;" d="M268,392H108c-4.418,0-8-3.582-8-8s3.582-8,8-8h160c4.418,0,8,3.582,8,8S272.418,392,268,392z"/>
<path style="fill:#F8CF26;" d="M320,392h-22.4c-4.418,0-8-3.582-8-8s3.582-8,8-8H320c4.418,0,8,3.582,8,8S324.418,392,320,392z"/>
<path style="fill:#29ABE2;" d="M468,64H4V16C4,7.163,11.163,0,20,0h432c8.837,0,16,7.163,16,16V64z"/>
<path style="fill:#F2F2F2;" d="M236,40H28c-4.418,0-8-3.582-8-8s3.582-8,8-8h208c4.418,0,8,3.582,8,8S240.418,40,236,40z"/>
<g>
	<path style="fill:#333333;" d="M372,40c-2.118-0.029-4.147-0.858-5.68-2.32c-0.74-0.751-1.313-1.651-1.68-2.64
		c-0.41-0.962-0.627-1.995-0.64-3.04c0.012-2.122,0.843-4.157,2.32-5.68c3.111-3.137,8.177-3.158,11.314-0.047
		c1.526,1.514,2.379,3.577,2.366,5.727c-0.031,2.118-0.859,4.146-2.32,5.68c-0.4,0.32-0.8,0.64-1.28,0.96
		c-0.409,0.316-0.869,0.559-1.36,0.72c-0.479,0.243-0.996,0.405-1.528,0.48C373.013,39.933,372.507,39.987,372,40z"/>
	<path style="fill:#333333;" d="M404,40c-0.51-0.013-1.018-0.067-1.52-0.16c-0.53-0.074-1.044-0.236-1.52-0.48
		c-0.512-0.176-0.999-0.418-1.448-0.72l-1.192-0.96c-3.094-3.155-3.094-8.205,0-11.36l1.192-0.96
		c0.449-0.302,0.936-0.544,1.448-0.72c0.476-0.244,0.99-0.406,1.52-0.48c0.996-0.24,2.036-0.24,3.032,0
		c0.532,0.075,1.049,0.237,1.528,0.48c0.491,0.161,0.951,0.404,1.36,0.72c0.472,0.32,0.88,0.64,1.28,0.96
		c3.094,3.155,3.094,8.205,0,11.36c-0.4,0.32-0.8,0.64-1.28,0.96c-0.409,0.316-0.869,0.559-1.36,0.72
		c-0.479,0.243-0.996,0.405-1.528,0.48C405.013,39.933,404.507,39.987,404,40L404,40z"/>
	<path style="fill:#333333;" d="M436,40c-2.118-0.029-4.147-0.858-5.68-2.32c-1.477-1.523-2.308-3.558-2.32-5.68
		c0.026-4.418,3.628-7.979,8.046-7.953c4.418,0.026,7.979,3.628,7.953,8.046c-0.012,2.094-0.845,4.1-2.32,5.587l-1.2,0.96
		c-0.447,0.301-0.931,0.544-1.44,0.72c-0.454,0.23-0.939,0.392-1.44,0.48C437.071,39.932,436.536,39.986,436,40L436,40z"/>
</g>
<path style="fill:#00A99D;" d="M52,96h360c8.837,0,16,7.163,16,16v64c0,8.837-7.163,16-16,16H52c-8.837,0-16-7.163-16-16v-64
	C36,103.163,43.163,96,52,96z"/>
<path style="fill:#29485A;" d="M436,232H228c-4.418,0-8-3.582-8-8s3.582-8,8-8h208c4.418,0,8,3.582,8,8S440.418,232,436,232z"/>
<g>
</g>
<g>
</g>
<g>
</g>
<g>
</g>
<g>
</g>
<g>
</g>
<g>
</g>
<g>
</g>
<g>
</g>
<g>
</g>
<g>
</g>
<g>
</g>
<g>
</g>
<g>
</g>
<g>
</g>
</svg>
