<?xml version="1.0" encoding="iso-8859-1"?>
<!-- Generator: Adobe Illustrator 19.0.0, SVG Export Plug-In . SVG Version: 6.00 Build 0)  -->
<svg version="1.1" id="Capa_1" xmlns="http://www.w3.org/2000/svg" xmlns:xlink="http://www.w3.org/1999/xlink" x="0px" y="0px"
	 viewBox="0 0 464 464" style="enable-background:new 0 0 464 464;" xml:space="preserve">
<path style="fill:#3593B5;" d="M16,0h432c8.837,0,16,7.163,16,16v432c0,8.837-7.163,16-16,16H16c-8.837,0-16-7.163-16-16V16
	C0,7.163,7.163,0,16,0z"/>
<path style="fill:#025A7A;" d="M56,80v208h40v48h32v48h208v-48h40v-48h32V80H56z"/>
<g>
	<path style="fill:#F8CF26;" d="M232,176c-4.418,0-8-3.582-8-8V80c0-4.418,3.582-8,8-8s8,3.582,8,8v88
		C240,172.418,236.418,176,232,176z"/>
	<path style="fill:#F8CF26;" d="M264,176c-4.418,0-8-3.582-8-8V80c0-4.418,3.582-8,8-8s8,3.582,8,8v88
		C272,172.418,268.418,176,264,176z"/>
	<path style="fill:#F8CF26;" d="M296,176c-4.418,0-8-3.582-8-8V80c0-4.418,3.582-8,8-8s8,3.582,8,8v88
		C304,172.418,300.418,176,296,176z"/>
	<path style="fill:#F8CF26;" d="M328,176c-4.418,0-8-3.582-8-8V80c0-4.418,3.582-8,8-8s8,3.582,8,8v88
		C336,172.418,332.418,176,328,176z"/>
	<path style="fill:#F8CF26;" d="M136,176c-4.418,0-8-3.582-8-8V80c0-4.418,3.582-8,8-8s8,3.582,8,8v88
		C144,172.418,140.418,176,136,176z"/>
	<path style="fill:#F8CF26;" d="M168,176c-4.418,0-8-3.582-8-8V80c0-4.418,3.582-8,8-8s8,3.582,8,8v88
		C176,172.418,172.418,176,168,176z"/>
	<path style="fill:#F8CF26;" d="M200,176c-4.418,0-8-3.582-8-8V80c0-4.418,3.582-8,8-8s8,3.582,8,8v88
		C208,172.418,204.418,176,200,176z"/>
</g>
<g>
</g>
<g>
</g>
<g>
</g>
<g>
</g>
<g>
</g>
<g>
</g>
<g>
</g>
<g>
</g>
<g>
</g>
<g>
</g>
<g>
</g>
<g>
</g>
<g>
</g>
<g>
</g>
<g>
</g>
</svg>
