<?xml version="1.0" encoding="iso-8859-1"?>
<!-- Generator: Adobe Illustrator 19.0.0, SVG Export Plug-In . SVG Version: 6.00 Build 0)  -->
<svg version="1.1" id="Capa_1" xmlns="http://www.w3.org/2000/svg" xmlns:xlink="http://www.w3.org/1999/xlink" x="0px" y="0px"
	 viewBox="0 0 464 464" style="enable-background:new 0 0 464 464;" xml:space="preserve">
<path style="fill:#025A7A;" d="M168,96.128v38.448c0,10.616,28.656,19.2,64,19.2s64-8.608,64-19.2V96.128"/>
<g>
	<path style="fill:#ED1C24;" d="M158.176,277.04l25.024-15.08c3.843-2.18,5.191-7.063,3.011-10.906
		c-2.18-3.843-7.062-5.191-10.906-3.011c-0.12,0.068-0.238,0.139-0.354,0.213l-14.592,8.8c3.865-39.576,39.081-68.526,78.658-64.661
		c23.748,2.319,44.804,16.253,56.222,37.205c2.108,3.884,6.964,5.324,10.848,3.216c3.884-2.108,5.324-6.964,3.216-10.848l0,0
		c-23.227-42.692-76.664-58.471-119.356-35.244c-25.952,14.12-43.087,40.32-45.62,69.756l-10.776-8.8
		c-3.337-2.895-8.39-2.537-11.285,0.8c-2.895,3.337-2.537,8.39,0.8,11.285c0.119,0.103,0.24,0.202,0.365,0.298l22.328,18.256
		C149.738,280.631,154.753,280.114,158.176,277.04L158.176,277.04z"/>
	<path style="fill:#ED1C24;" d="M340.568,267.944L318.24,249.68c-3.977-2.316-8.995-1.799-12.416,1.28L280.8,266.04
		c-3.725,2.375-4.82,7.321-2.444,11.047c2.289,3.59,6.989,4.758,10.692,2.658l14.592-8.8c-3.881,39.575-39.108,68.51-78.683,64.63
		c-23.71-2.325-44.734-16.227-56.157-37.134c-2.108-3.884-6.964-5.324-10.848-3.216s-5.324,6.964-3.216,10.848l0,0
		c23.265,42.671,76.717,58.402,119.387,35.138c25.906-14.125,43.009-40.292,45.549-69.69l10.776,8.8
		c3.337,2.895,8.39,2.537,11.285-0.8c2.895-3.337,2.537-8.39-0.8-11.285c-0.119-0.103-0.24-0.202-0.365-0.298V267.944z"/>
</g>
<path style="fill:#025A7A;" d="M0,407.6v37.6C0,455.584,28.656,464,64,464s64-8.416,64-18.8v-37.6"/>
<path style="fill:#0378A3;" d="M0,370v37.6c0,10.4,28.656,18.8,64,18.8s64-8.416,64-18.8V370"/>
<path style="fill:#3593B5;" d="M0,332.4V370c0,10.4,28.656,18.8,64,18.8s64-8.416,64-18.8v-37.6"/>
<ellipse style="fill:#68AEC8;" cx="64" cy="332.4" rx="64" ry="18.8"/>
<path style="fill:#0378A3;" d="M168,57.672v38.456c0,10.616,28.656,19.2,64,19.2s64-8.608,64-19.2V57.672"/>
<path style="fill:#3593B5;" d="M168,19.2v38.448c0,10.624,28.656,19.2,64,19.2s64-8.608,64-19.2V19.2"/>
<path style="fill:#025A7A;" d="M336,407.6v37.6c0,10.4,28.656,18.8,64,18.8s64-8.416,64-18.8v-37.6"/>
<ellipse style="fill:#68AEC8;" cx="232" cy="19.224" rx="64" ry="19.224"/>
<path style="fill:#0378A3;" d="M336,370v37.6c0,10.4,28.656,18.8,64,18.8s64-8.416,64-18.8V370"/>
<path style="fill:#3593B5;" d="M336,332.4V370c0,10.4,28.656,18.8,64,18.8s64-8.416,64-18.8v-37.6"/>
<ellipse style="fill:#68AEC8;" cx="400" cy="332.4" rx="64" ry="18.8"/>
<g>
</g>
<g>
</g>
<g>
</g>
<g>
</g>
<g>
</g>
<g>
</g>
<g>
</g>
<g>
</g>
<g>
</g>
<g>
</g>
<g>
</g>
<g>
</g>
<g>
</g>
<g>
</g>
<g>
</g>
</svg>
