<?xml version="1.0" encoding="iso-8859-1"?>
<!-- Generator: Adobe Illustrator 19.0.0, SVG Export Plug-In . SVG Version: 6.00 Build 0)  -->
<svg version="1.1" id="Capa_1" xmlns="http://www.w3.org/2000/svg" xmlns:xlink="http://www.w3.org/1999/xlink" x="0px" y="0px"
	 viewBox="0 0 464.033 464.033" style="enable-background:new 0 0 464.033 464.033;" xml:space="preserve">
<path style="fill:#29485A;" d="M456.016,440.016H245.792c-1.397-2.389-3.387-4.379-5.776-5.776v-42.224c0-4.418-3.582-8-8-8
	s-8,3.582-8,8v42.224c-2.389,1.397-4.379,3.387-5.776,5.776H8.016c-4.418,0-8,3.582-8,8s3.582,8,8,8H218.24
	c4.345,7.608,14.035,10.254,21.643,5.909c2.462-1.406,4.503-3.447,5.909-5.909h210.224c4.418,0,8-3.582,8-8
	S460.435,440.016,456.016,440.016z"/>
<path style="fill:#F8CF26;" d="M464.016,336.016c0,17.673-14.327,32-32,32H38.68c-21.989-0.666-39.287-19.01-38.664-41v-287
	c-0.583-21.484,16.341-39.381,37.824-40h83.112c7.521,0.016,14.853,2.364,20.984,6.72l37.68,26.56
	c6.131,4.356,13.463,6.704,20.984,6.72h224.752c21.989,0.666,39.287,19.01,38.664,41V336.016z"/>
<path style="fill:#F2F2F2;" d="M352.016,152.016l-80-80h-152v264l232,0.24"/>
<g>
	<path style="fill:#29485A;" d="M240.016,120.016h-88c-4.418,0-8-3.582-8-8s3.582-8,8-8h88c4.418,0,8,3.582,8,8
		S244.435,120.016,240.016,120.016z"/>
	<path style="fill:#29485A;" d="M240.016,152.016h-88c-4.418,0-8-3.582-8-8s3.582-8,8-8h88c4.418,0,8,3.582,8,8
		S244.435,152.016,240.016,152.016z"/>
	<path style="fill:#29485A;" d="M224.016,248.016h-72c-4.418,0-8-3.582-8-8s3.582-8,8-8h72c4.418,0,8,3.582,8,8
		S228.435,248.016,224.016,248.016z"/>
	<path style="fill:#29485A;" d="M224.016,280.016h-72c-4.418,0-8-3.582-8-8s3.582-8,8-8h72c4.418,0,8,3.582,8,8
		S228.435,280.016,224.016,280.016z"/>
	<path style="fill:#29485A;" d="M224.016,312.016h-72c-4.418,0-8-3.582-8-8s3.582-8,8-8h72c4.418,0,8,3.582,8,8
		S228.435,312.016,224.016,312.016z"/>
	<path style="fill:#29485A;" d="M320.016,184.016h-168c-4.418,0-8-3.582-8-8s3.582-8,8-8h168c4.418,0,8,3.582,8,8
		S324.435,184.016,320.016,184.016z"/>
	<path style="fill:#29485A;" d="M224.016,216.016h-72c-4.418,0-8-3.582-8-8s3.582-8,8-8h72c4.418,0,8,3.582,8,8
		S228.435,216.016,224.016,216.016z"/>
</g>
<path style="fill:#999999;" d="M352.016,152.016h-80v-80L352.016,152.016z"/>
<path style="fill:#3593B5;" d="M360.016,192.936c33.28,13.472,70.72,21.168,104,7.696v93.32c0,101.016-104,122.064-104,122.064
	s-104-21.048-104-122.064v-93.32C289.296,214.104,326.736,206.408,360.016,192.936z"/>
<path style="fill:#808080;" d="M394.304,299.464c-4.418,0-8-3.582-8-8v-19.6c-2.063-14.518-15.505-24.616-30.023-22.553
	c-11.698,1.662-20.891,10.855-22.553,22.553v19.6c0,4.418-3.582,8-8,8s-8-3.582-8-8v-19.6c2.034-23.355,22.615-40.639,45.97-38.606
	c20.535,1.788,36.818,18.071,38.606,38.606v19.6C402.304,295.883,398.723,299.464,394.304,299.464z"/>
<path style="fill:#F8CF26;" d="M312.016,285.304h96v73.92h-96V285.304z"/>
<path style="fill:#4D4D4D;" d="M375.4,313.864c0-8.496-6.888-15.384-15.384-15.384s-15.384,6.888-15.384,15.384
	c0.037,5.269,2.841,10.13,7.384,12.8v9.6c0,4.418,3.582,8,8,8s8-3.582,8-8v-9.6C372.559,323.995,375.363,319.133,375.4,313.864z"/>
<g>
</g>
<g>
</g>
<g>
</g>
<g>
</g>
<g>
</g>
<g>
</g>
<g>
</g>
<g>
</g>
<g>
</g>
<g>
</g>
<g>
</g>
<g>
</g>
<g>
</g>
<g>
</g>
<g>
</g>
</svg>
