<?xml version="1.0" encoding="iso-8859-1"?>
<!-- Generator: Adobe Illustrator 19.0.0, SVG Export Plug-In . SVG Version: 6.00 Build 0)  -->
<svg version="1.1" id="Capa_1" xmlns="http://www.w3.org/2000/svg" xmlns:xlink="http://www.w3.org/1999/xlink" x="0px" y="0px"
	 viewBox="0 0 464.008 464.008" style="enable-background:new 0 0 464.008 464.008;" xml:space="preserve">
<path style="fill:#F8CF26;" d="M368.008,256.004v119.912c0.384,17.325-13.339,31.686-30.664,32.088H30.672
	c-17.325-0.402-31.048-14.763-30.664-32.088V151.308c-0.353-16.926,13.075-30.937,30-31.304h65.92
	c5.953,0.012,11.76,1.846,16.64,5.256l29.88,20.8c4.88,3.41,10.687,5.244,16.64,5.256h26.352"/>
<path style="fill:#29ABE2;" d="M185.44,56.004h278.568v200H185.44V56.004z"/>
<path style="fill:#8C6239;" d="M304.008,184.004l16-16l48-48l95,95l1,41h-160V184.004z"/>
<circle style="fill:#F8CF26;" cx="256.008" cy="104.004" r="16"/>
<path style="fill:#A67C52;" d="M376.008,256.004l-96-96l-95.288,95.288"/>
<g>
</g>
<g>
</g>
<g>
</g>
<g>
</g>
<g>
</g>
<g>
</g>
<g>
</g>
<g>
</g>
<g>
</g>
<g>
</g>
<g>
</g>
<g>
</g>
<g>
</g>
<g>
</g>
<g>
</g>
</svg>
