<?xml version="1.0" encoding="iso-8859-1"?>
<!-- Generator: Adobe Illustrator 19.0.0, SVG Export Plug-In . SVG Version: 6.00 Build 0)  -->
<svg version="1.1" id="Capa_1" xmlns="http://www.w3.org/2000/svg" xmlns:xlink="http://www.w3.org/1999/xlink" x="0px" y="0px"
	 viewBox="0 0 480 480" style="enable-background:new 0 0 480 480;" xml:space="preserve">
<path style="fill:#0071BC;" d="M120,332v61.336C120,410.272,173.728,424,240,424s120-13.728,120-30.664V332"/>
<path style="fill:#29ABE2;" d="M120,270.664V332c0,16.936,53.728,30.664,120,30.664S360,348.936,360,332v-61.336"/>
<path style="fill:#0071BC;" d="M120,209.336v61.328c0,16.936,53.728,30.672,120,30.672s120-13.736,120-30.672v-61.328"/>
<path style="fill:#29ABE2;" d="M120,148v61.336C120,226.272,173.728,240,240,240s120-13.728,120-30.664V148"/>
<path style="fill:#0071BC;" d="M120,86.664V148c0,16.936,53.728,30.664,120,30.664S360,164.936,360,148V86.664"/>
<ellipse style="fill:#29ABE2;" cx="240" cy="86.664" rx="120" ry="30.664"/>
<g>
	<path style="fill:#ED1C24;" d="M88,128H60.16l-32-40H8c-4.418,0-8-3.582-8-8s3.582-8,8-8h27.84l32,40H88c4.418,0,8,3.582,8,8
		S92.418,128,88,128z"/>
	<path style="fill:#ED1C24;" d="M35.84,424H8c-4.418,0-8-3.582-8-8s3.582-8,8-8h20.16l32-40H88c4.418,0,8,3.582,8,8s-3.582,8-8,8
		H67.84L35.84,424z"/>
	<path style="fill:#ED1C24;" d="M88,256H8c-4.418,0-8-3.582-8-8s3.582-8,8-8h80c4.418,0,8,3.582,8,8S92.418,256,88,256z"/>
	<path style="fill:#ED1C24;" d="M472,416h-27.84l-32-40H392c-4.418,0-8-3.582-8-8s3.582-8,8-8h27.84l32,40H472c4.418,0,8,3.582,8,8
		S476.418,416,472,416z"/>
	<path style="fill:#ED1C24;" d="M419.84,128H392c-4.418,0-8-3.582-8-8s3.582-8,8-8h20.16l32-40H472c4.418,0,8,3.582,8,8
		s-3.582,8-8,8h-20.16L419.84,128z"/>
	<path style="fill:#ED1C24;" d="M472,256h-80c-4.418,0-8-3.582-8-8s3.582-8,8-8h80c4.418,0,8,3.582,8,8S476.418,256,472,256z"/>
	<path style="fill:#ED1C24;" d="M418.664,192H392c-4.418,0-8-3.582-8-8s3.582-8,8-8h21.336l32-24H472c4.418,0,8,3.582,8,8
		s-3.582,8-8,8h-21.336L418.664,192z"/>
	<path style="fill:#ED1C24;" d="M472,336h-26.664l-32-24H392c-4.418,0-8-3.582-8-8s3.582-8,8-8h26.664l32,24H472
		c4.418,0,8,3.582,8,8S476.418,336,472,336z"/>
	<path style="fill:#ED1C24;" d="M34.664,336H8c-4.418,0-8-3.582-8-8s3.582-8,8-8h21.336l32-24H88c4.418,0,8,3.582,8,8s-3.582,8-8,8
		H66.664L34.664,336z"/>
	<path style="fill:#ED1C24;" d="M88,192H61.336l-32-24H8c-4.418,0-8-3.582-8-8s3.582-8,8-8h26.664l32,24H88c4.418,0,8,3.582,8,8
		S92.418,192,88,192z"/>
</g>
<g>
</g>
<g>
</g>
<g>
</g>
<g>
</g>
<g>
</g>
<g>
</g>
<g>
</g>
<g>
</g>
<g>
</g>
<g>
</g>
<g>
</g>
<g>
</g>
<g>
</g>
<g>
</g>
<g>
</g>
</svg>
