<?xml version="1.0" encoding="iso-8859-1"?>
<!-- Generator: Adobe Illustrator 19.0.0, SVG Export Plug-In . SVG Version: 6.00 Build 0)  -->
<svg version="1.1" id="Capa_1" xmlns="http://www.w3.org/2000/svg" xmlns:xlink="http://www.w3.org/1999/xlink" x="0px" y="0px"
	 viewBox="0 0 464 464" style="enable-background:new 0 0 464 464;" xml:space="preserve">
<path style="fill:#025A7A;" d="M80,324.8v92.8c0,25.6,68.056,46.4,152,46.4s152-20.8,152-46.4v-92.8"/>
<path style="fill:#0378A3;" d="M80,232v92.8c0,25.6,68.056,46.4,152,46.4s152-20.8,152-46.4V232"/>
<path style="fill:#3593B5;" d="M80,139.2V232c0,25.6,68.056,46.4,152,46.4s152-20.8,152-46.4v-92.8"/>
<path style="fill:#68AEC8;" d="M80,46.4v92.8c0,25.6,68.056,46.4,152,46.4s152-20.8,152-46.4V46.4"/>
<ellipse style="fill:#9AC9DA;" cx="232" cy="46.4" rx="152" ry="46.4"/>
<g>
	<path style="fill:#F8CF26;" d="M112,208c-4.418,0-8-3.582-8-8v-72c0-4.418,3.582-8,8-8s8,3.582,8,8v72
		C120,204.418,116.418,208,112,208z"/>
	<path style="fill:#F8CF26;" d="M144,224c-4.418,0-8-3.582-8-8v-72c0-4.418,3.582-8,8-8s8,3.582,8,8v72
		C152,220.418,148.418,224,144,224z"/>
	<path style="fill:#F8CF26;" d="M112,392c-4.418,0-8-3.582-8-8v-72c0-4.418,3.582-8,8-8s8,3.582,8,8v72
		C120,388.418,116.418,392,112,392z"/>
	<path style="fill:#F8CF26;" d="M144,408c-4.418,0-8-3.582-8-8v-72c0-4.418,3.582-8,8-8s8,3.582,8,8v72
		C152,404.418,148.418,408,144,408z"/>
	<path style="fill:#F8CF26;" d="M320,312c-4.418,0-8-3.582-8-8v-72c0-4.418,3.582-8,8-8s8,3.582,8,8v72
		C328,308.418,324.418,312,320,312z"/>
	<path style="fill:#F8CF26;" d="M352,296c-4.418,0-8-3.582-8-8v-72c0-4.418,3.582-8,8-8s8,3.582,8,8v72
		C360,292.418,356.418,296,352,296z"/>
</g>
<g>
</g>
<g>
</g>
<g>
</g>
<g>
</g>
<g>
</g>
<g>
</g>
<g>
</g>
<g>
</g>
<g>
</g>
<g>
</g>
<g>
</g>
<g>
</g>
<g>
</g>
<g>
</g>
<g>
</g>
</svg>
