<?xml version="1.0" encoding="iso-8859-1"?>
<!-- Generator: Adobe Illustrator 19.0.0, SVG Export Plug-In . SVG Version: 6.00 Build 0)  -->
<svg version="1.1" id="Capa_1" xmlns="http://www.w3.org/2000/svg" xmlns:xlink="http://www.w3.org/1999/xlink" x="0px" y="0px"
	 viewBox="0 0 464 464" style="enable-background:new 0 0 464 464;" xml:space="preserve">
<path style="fill:#025A7A;" d="M320,284v34.664C320,328.24,352.232,336,392,336s72-7.76,72-17.336V284"/>
<path style="fill:#0378A3;" d="M320,249.336V284c0,9.6,32.232,17.336,72,17.336s72-7.76,72-17.336v-34.664"/>
<path style="fill:#3593B5;" d="M320,214.664v34.672c0,9.6,32.232,17.328,72,17.328s72-7.76,72-17.328v-34.672"/>
<path style="fill:#68AEC8;" d="M320,180v34.664C320,224.24,352.232,232,392,232s72-7.76,72-17.336V180"/>
<path style="fill:#9AC9DA;" d="M320,144v36c0,9.6,32.232,17.336,72,17.336s72-7.76,72-17.336v-36"/>
<ellipse style="fill:#D7E9F0;" cx="392" cy="144" rx="72" ry="16"/>
<g>
	<path style="fill:#ED1C24;" d="M368,48c-4.418,0-8,3.582-8,8v18.824C284.286,5.016,166.972,7.402,94.16,80.232
		c-3.178,3.069-3.266,8.134-0.197,11.312s8.134,3.266,11.312,0.197c0.067-0.064,0.132-0.13,0.197-0.197
		C172.701,24.219,281.308,22.648,350.456,88H328c-4.418,0-8,3.582-8,8s3.582,8,8,8h48V56C376,51.582,372.418,48,368,48z"/>
	<path style="fill:#ED1C24;" d="M358.528,372.456c-67.229,67.325-175.836,68.896-244.984,3.544H136c4.418,0,8-3.582,8-8
		s-3.582-8-8-8H88v48c0,4.418,3.582,8,8,8s8-3.582,8-8v-18.824c75.714,69.809,193.028,67.422,265.84-5.408
		c3.07-3.178,2.982-8.242-0.196-11.312C366.544,369.461,361.628,369.461,358.528,372.456z"/>
</g>
<path style="fill:#025A7A;" d="M0,284v34.664C0,328.24,32.232,336,72,336s72-7.76,72-17.336V284"/>
<path style="fill:#0378A3;" d="M0,249.336V284c0,9.6,32.232,17.336,72,17.336s72-7.76,72-17.336v-34.664"/>
<path style="fill:#3593B5;" d="M0,214.664v34.672c0,9.6,32.232,17.328,72,17.328s72-7.76,72-17.328v-34.672"/>
<path style="fill:#68AEC8;" d="M0,180v34.664C0,224.24,32.232,232,72,232s72-7.76,72-17.336V180"/>
<path style="fill:#9AC9DA;" d="M0,144v36c0,9.6,32.232,17.336,72,17.336s72-7.76,72-17.336v-36"/>
<ellipse style="fill:#D7E9F0;" cx="72" cy="144" rx="72" ry="16"/>
<g>
</g>
<g>
</g>
<g>
</g>
<g>
</g>
<g>
</g>
<g>
</g>
<g>
</g>
<g>
</g>
<g>
</g>
<g>
</g>
<g>
</g>
<g>
</g>
<g>
</g>
<g>
</g>
<g>
</g>
</svg>
