<?xml version="1.0" encoding="iso-8859-1"?>
<!-- Generator: Adobe Illustrator 19.0.0, SVG Export Plug-In . SVG Version: 6.00 Build 0)  -->
<svg version="1.1" id="Capa_1" xmlns="http://www.w3.org/2000/svg" xmlns:xlink="http://www.w3.org/1999/xlink" x="0px" y="0px"
	 viewBox="0 0 480 480" style="enable-background:new 0 0 480 480;" xml:space="preserve">
<path style="fill:#29485A;" d="M24,344h432c8.837,0,16,7.163,16,16v48c0,8.837-7.163,16-16,16H24c-8.837,0-16-7.163-16-16v-48
	C8,351.163,15.163,344,24,344z"/>
<circle style="fill:#C1272D;" cx="416" cy="384" r="8"/>
<path style="fill:#E6E6E6;" d="M296,392H40c-4.418,0-8-3.582-8-8s3.582-8,8-8h256c4.418,0,8,3.582,8,8S300.418,392,296,392z"/>
<path style="fill:#F8CF26;" d="M360,392h-32c-4.418,0-8-3.582-8-8s3.582-8,8-8h32c4.418,0,8,3.582,8,8S364.418,392,360,392z"/>
<path style="fill:#06AAE9;" d="M24,232h432c8.837,0,16,7.163,16,16v48c0,8.837-7.163,16-16,16H24c-8.837,0-16-7.163-16-16v-48
	C8,239.163,15.163,232,24,232z"/>
<circle style="fill:#C1272D;" cx="416" cy="272" r="8"/>
<path style="fill:#E6E6E6;" d="M296,280H40c-4.418,0-8-3.582-8-8s3.582-8,8-8h256c4.418,0,8,3.582,8,8S300.418,280,296,280z"/>
<path style="fill:#F8CF26;" d="M360,280h-32c-4.418,0-8-3.582-8-8s3.582-8,8-8h32c4.418,0,8,3.582,8,8S364.418,280,360,280z"/>
<path style="fill:#29485A;" d="M24,120h432c8.837,0,16,7.163,16,16v48c0,8.837-7.163,16-16,16H24c-8.837,0-16-7.163-16-16v-48
	C8,127.163,15.163,120,24,120z"/>
<circle style="fill:#C1272D;" cx="416" cy="160" r="8"/>
<path style="fill:#E6E6E6;" d="M296,168H40c-4.418,0-8-3.582-8-8s3.582-8,8-8h256c4.418,0,8,3.582,8,8S300.418,168,296,168z"/>
<path style="fill:#F8CF26;" d="M360,168h-32c-4.418,0-8-3.582-8-8s3.582-8,8-8h32c4.418,0,8,3.582,8,8S364.418,168,360,168z"/>
<path style="fill:#06AAE9;" d="M24,8h432c8.837,0,16,7.163,16,16v48c0,8.837-7.163,16-16,16H24c-8.837,0-16-7.163-16-16V24
	C8,15.163,15.163,8,24,8z"/>
<circle style="fill:#C1272D;" cx="416" cy="48" r="8"/>
<path style="fill:#E6E6E6;" d="M296,56H40c-4.418,0-8-3.582-8-8s3.582-8,8-8h256c4.418,0,8,3.582,8,8S300.418,56,296,56z"/>
<path style="fill:#F8CF26;" d="M360,56h-32c-4.418,0-8-3.582-8-8s3.582-8,8-8h32c4.418,0,8,3.582,8,8S364.418,56,360,56z"/>
<path style="fill:#29485A;" d="M472,472H8c-4.418,0-8-3.582-8-8s3.582-8,8-8h464c4.418,0,8,3.582,8,8S476.418,472,472,472z"/>
<path style="fill:#009245;" d="M32,88h16v32H32V88z"/>
<path style="fill:#0071BC;" d="M64,88h16v32H64V88z"/>
<path style="fill:#ED1C24;" d="M96,88h16v32H96V88z"/>
<path style="fill:#F8CF26;" d="M128,88h16v32h-16V88z"/>
<path style="fill:#009245;" d="M344,200h16v32h-16V200z"/>
<path style="fill:#0071BC;" d="M376,200h16v32h-16V200z"/>
<path style="fill:#ED1C24;" d="M408,200h16v32h-16V200z"/>
<path style="fill:#F8CF26;" d="M440,200h16v32h-16V200z"/>
<path style="fill:#009245;" d="M344,424h16v32h-16V424z"/>
<path style="fill:#0071BC;" d="M376,424h16v32h-16V424z"/>
<path style="fill:#ED1C24;" d="M408,424h16v32h-16V424z"/>
<path style="fill:#F8CF26;" d="M440,424h16v32h-16V424z"/>
<path style="fill:#009245;" d="M32,312h16v32H32V312z"/>
<path style="fill:#0071BC;" d="M64,312h16v32H64V312z"/>
<path style="fill:#ED1C24;" d="M96,312h16v32H96V312z"/>
<path style="fill:#F8CF26;" d="M128,312h16v32h-16V312z"/>
<g>
</g>
<g>
</g>
<g>
</g>
<g>
</g>
<g>
</g>
<g>
</g>
<g>
</g>
<g>
</g>
<g>
</g>
<g>
</g>
<g>
</g>
<g>
</g>
<g>
</g>
<g>
</g>
<g>
</g>
</svg>
