<?xml version="1.0" encoding="iso-8859-1"?>
<!-- Generator: Adobe Illustrator 19.0.0, SVG Export Plug-In . SVG Version: 6.00 Build 0)  -->
<svg version="1.1" id="Capa_1" xmlns="http://www.w3.org/2000/svg" xmlns:xlink="http://www.w3.org/1999/xlink" x="0px" y="0px"
	 viewBox="0 0 464 464" style="enable-background:new 0 0 464 464;" xml:space="preserve">
<circle style="fill:#025A7A;" cx="196" cy="200" r="192"/>
<g>
	<path style="fill:#29ABE2;" d="M105.776,307.44c-16.291,7.492-31.618,16.922-45.648,28.088
		C89.77,365.301,128.374,384.507,170,390.192C142.929,367.51,121.03,339.293,105.776,307.44z"/>
	<path style="fill:#29ABE2;" d="M81.664,208.296H4.208c1.8,42.321,17.612,82.845,44.952,115.2
		c15.376-12.296,32.209-22.649,50.12-30.824C88.522,265.792,82.56,237.235,81.664,208.296L81.664,208.296z"/>
	<path style="fill:#29ABE2;" d="M170.896,9.696c-41.834,5.505-80.68,24.671-110.504,54.52c14.051,11.226,29.408,20.71,45.736,28.248
		C121.535,60.551,143.624,32.324,170.896,9.696z"/>
	<path style="fill:#29ABE2;" d="M99.592,107.2c-17.943-8.221-34.799-18.631-50.184-30.992
		c-27.614,32.56-43.532,73.428-45.216,116.088h77.464C82.574,163.095,88.646,134.287,99.592,107.2L99.592,107.2z"/>
	<path style="fill:#29ABE2;" d="M222,9.808c27.071,22.682,48.97,50.899,64.224,82.752c16.291-7.492,31.618-16.922,45.648-28.088
		C302.23,34.699,263.626,15.493,222,9.808z"/>
	<path style="fill:#29ABE2;" d="M292.408,292.8c17.943,8.221,34.799,18.631,50.184,30.992c27.488-32.406,43.392-73.048,45.2-115.504
		H310.32C309.344,237.29,303.281,265.895,292.408,292.8L292.408,292.8z"/>
	<path style="fill:#29ABE2;" d="M387.808,192.296c-1.674-42.533-17.5-83.29-44.968-115.808
		c-15.376,12.296-32.209,22.649-50.12,30.824c10.819,27.072,16.777,55.841,17.6,84.984L387.808,192.296z"/>
	<path style="fill:#29ABE2;" d="M221.104,390.304c41.834-5.505,80.68-24.671,110.504-54.52
		c-14.051-11.226-29.408-20.71-45.736-28.248C270.465,339.449,248.376,367.676,221.104,390.304L221.104,390.304z"/>
</g>
<g>
	<path style="fill:#3593B5;" d="M294.328,208.296h-90.04v63.496c25.098,0.927,49.877,5.931,73.368,14.816
		C287.714,261.669,293.355,235.169,294.328,208.296z"/>
	<path style="fill:#3593B5;" d="M277.944,113.512c-23.59,8.872-48.468,13.839-73.656,14.704v64.08H294.4
		C293.553,165.276,287.984,138.612,277.944,113.512z"/>
	<path style="fill:#3593B5;" d="M204.288,16.104V112c22.959-0.792,45.645-5.245,67.2-13.192
		C255.826,66.388,232.816,38.069,204.288,16.104L204.288,16.104z"/>
	<path style="fill:#3593B5;" d="M120.872,98.72c21.618,8,44.379,12.484,67.416,13.28V16.24
		C159.708,38.117,136.624,66.358,120.872,98.72z"/>
	<path style="fill:#3593B5;" d="M114.056,286.488c23.77-8.941,48.849-13.914,74.232-14.72v-63.472H97.656
		C98.556,235.113,104.105,261.57,114.056,286.488L114.056,286.488z"/>
	<path style="fill:#3593B5;" d="M271.128,301.28c-21.436-7.938-43.997-12.42-66.84-13.28v95.328
		C232.607,361.509,255.485,333.425,271.128,301.28z"/>
	<path style="fill:#3593B5;" d="M188.288,384.328V288c-23.144,0.743-46.018,5.206-67.744,13.216
		C136.309,333.841,159.513,362.308,188.288,384.328z"/>
	<path style="fill:#3593B5;" d="M97.656,192.296h90.632v-64.08c-25.292-0.869-50.271-5.877-73.944-14.824
		C104.216,138.517,98.568,165.222,97.656,192.296L97.656,192.296z"/>
</g>
<path d="M196.296,400h-0.008H196.296z"/>
<path d="M196.288,400v-0.008h-0.008L196.288,400z"/>
<path d="M195.704,0l0.008,0.008h0.008L195.704,0z"/>
<path style="fill:#999999;" d="M412,330.096V292c0-24.301-19.699-44-44-44s-44,19.699-44,44v38.096L291.336,334v-39
	c-0.004-42.336,34.312-76.66,76.648-76.664c0.005,0,0.011,0,0.016,0c42.336-0.004,76.66,34.312,76.664,76.648
	c0,0.005,0,0.011,0,0.016v39L412,330.096z"/>
<path style="fill:#F8CF26;" d="M292,326h152c8.837,0,16,7.163,16,16v106c0,8.837-7.163,16-16,16H292c-8.837,0-16-7.163-16-16V342
	C276,333.163,283.163,326,292,326z"/>
<g>
</g>
<g>
</g>
<g>
</g>
<g>
</g>
<g>
</g>
<g>
</g>
<g>
</g>
<g>
</g>
<g>
</g>
<g>
</g>
<g>
</g>
<g>
</g>
<g>
</g>
<g>
</g>
<g>
</g>
</svg>
