<?xml version="1.0" encoding="iso-8859-1"?>
<!-- Generator: Adobe Illustrator 19.0.0, SVG Export Plug-In . SVG Version: 6.00 Build 0)  -->
<svg version="1.1" id="Capa_1" xmlns="http://www.w3.org/2000/svg" xmlns:xlink="http://www.w3.org/1999/xlink" x="0px" y="0px"
	 viewBox="0 0 480.098 480.098" style="enable-background:new 0 0 480.098 480.098;" xml:space="preserve">
<circle style="fill:#ED1C24;" cx="232.049" cy="72.098" r="24"/>
<path style="fill:#FFFFFF;" d="M168.049,48.098c-13.255,13.251-13.258,34.738-0.007,47.993c0.002,0.002,0.005,0.005,0.007,0.007"/>
<path style="fill:#29ABE2;" d="M168.049,104.098c-2.122,0-4.156-0.844-5.656-2.344c-16.379-16.369-16.386-42.917-0.017-59.295
	c0.006-0.006,0.011-0.011,0.017-0.017c3.069-3.178,8.134-3.266,11.312-0.197c3.178,3.069,3.266,8.134,0.197,11.312
	c-0.064,0.067-0.13,0.132-0.197,0.197c-10.131,10.126-10.135,26.548-0.009,36.679c0.003,0.003,0.006,0.006,0.009,0.009
	c3.124,3.125,3.123,8.19-0.002,11.314C172.204,103.255,170.17,104.098,168.049,104.098L168.049,104.098z"/>
<path style="fill:#FFFFFF;" d="M128.049,32.098c-22.087,22.093-22.087,57.907,0,80"/>
<path style="fill:#29ABE2;" d="M128.049,120.098c-2.122,0-4.156-0.844-5.656-2.344c-25.215-25.215-25.215-66.097,0-91.312
	c3.069-3.178,8.134-3.266,11.312-0.197c3.178,3.069,3.266,8.134,0.197,11.312c-0.064,0.067-0.13,0.132-0.197,0.197
	c-18.964,18.969-18.964,49.719,0,68.688c3.124,3.125,3.123,8.19-0.002,11.314C132.204,119.255,130.17,120.098,128.049,120.098
	L128.049,120.098z"/>
<path style="fill:#FFFFFF;" d="M88.049,8.098c-35.345,35.347-35.345,92.653,0,128"/>
<path style="fill:#29ABE2;" d="M88.049,144.098c-2.122,0-4.156-0.844-5.656-2.344c-38.406-38.496-38.406-100.816,0-139.312
	c3.069-3.178,8.134-3.266,11.312-0.196c3.178,3.069,3.266,8.134,0.196,11.312c-0.064,0.067-0.13,0.132-0.196,0.196
	c-32.16,32.248-32.16,84.44,0,116.688c3.124,3.125,3.123,8.19-0.002,11.314C92.204,143.255,90.17,144.098,88.049,144.098
	L88.049,144.098z"/>
<path style="fill:#FFFFFF;" d="M304.049,96.098c13.255-13.251,13.258-34.738,0.007-47.993c-0.002-0.002-0.005-0.005-0.007-0.007"/>
<path style="fill:#29ABE2;" d="M304.049,104.098c-4.418-0.001-7.999-3.583-7.998-8.002c0-2.121,0.843-4.154,2.342-5.654
	c10.131-10.126,10.135-26.548,0.009-36.679c-0.003-0.003-0.006-0.006-0.009-0.009c-3.178-3.07-3.266-8.134-0.196-11.312
	c3.07-3.178,8.134-3.266,11.312-0.196c0.067,0.064,0.132,0.13,0.196,0.196c16.379,16.369,16.386,42.917,0.017,59.295
	c-0.006,0.006-0.011,0.011-0.017,0.017C308.205,103.255,306.171,104.098,304.049,104.098z"/>
<path style="fill:#FFFFFF;" d="M344.049,112.098c22.087-22.093,22.087-57.907,0-80"/>
<path style="fill:#29ABE2;" d="M344.049,120.098c-4.418-0.001-7.999-3.583-7.998-8.002c0-2.121,0.843-4.154,2.342-5.654
	c18.964-18.969,18.964-49.719,0-68.688c-3.07-3.178-2.982-8.242,0.196-11.312c3.1-2.994,8.016-2.994,11.116,0
	c25.215,25.215,25.215,66.097,0,91.312C348.205,119.255,346.171,120.098,344.049,120.098L344.049,120.098z"/>
<path style="fill:#FFFFFF;" d="M392.049,136.098c35.345-35.347,35.345-92.653,0-128"/>
<path style="fill:#29ABE2;" d="M392.049,144.098c-4.418-0.001-7.999-3.583-7.998-8.002c0-2.121,0.843-4.155,2.342-5.654
	c32.16-32.248,32.16-84.44,0-116.688c-3.07-3.178-2.982-8.242,0.196-11.312c3.1-2.994,8.016-2.994,11.116,0
	c38.406,38.496,38.406,100.816,0,139.312C396.205,143.255,394.171,144.098,392.049,144.098L392.049,144.098z"/>
<path style="fill:#333333;" d="M367.705,469.778l-104-344c-1.281-4.229-5.747-6.618-9.976-5.337
	c-0.752,0.228-1.467,0.565-2.12,1.001c-11.839,7.913-27.281,7.913-39.12,0c-3.676-2.452-8.643-1.46-11.095,2.216
	c-0.436,0.654-0.774,1.368-1.001,2.12l-104,344c-1.251,4.237,1.17,8.687,5.407,9.938c4.195,1.239,8.607-1.121,9.905-5.298
	l17.344-57.36l95,36.536v18.504c0,4.418,3.582,8,8,8s8-3.582,8-8v-18.504l95-36.536l17.344,57.36
	c1.311,4.219,5.794,6.577,10.013,5.266C366.584,478.386,368.944,473.974,367.705,469.778z M199.305,184.674l24.744,12.368v102.112
	l-51.56-25.784L199.305,184.674z M240.049,197.042l24.744-12.368l26.816,88.696l-51.56,25.784V197.042z M260.097,169.13
	l-20.048,10.024v-36.448c3.818-0.587,7.557-1.607,11.144-3.04L260.097,169.13z M212.897,139.666
	c3.587,1.433,7.326,2.453,11.144,3.04v36.448l-20.048-10.024L212.897,139.666z M133.649,401.698l34.096-112.8l56.304,28.144V436.45
	L133.649,401.698z M240.049,436.45V317.042l56.264-28.144l34.136,112.8L240.049,436.45z"/>
<g>
</g>
<g>
</g>
<g>
</g>
<g>
</g>
<g>
</g>
<g>
</g>
<g>
</g>
<g>
</g>
<g>
</g>
<g>
</g>
<g>
</g>
<g>
</g>
<g>
</g>
<g>
</g>
<g>
</g>
</svg>
