<?xml version="1.0" encoding="iso-8859-1"?>
<!-- Generator: Adobe Illustrator 19.0.0, SVG Export Plug-In . SVG Version: 6.00 Build 0)  -->
<svg version="1.1" id="Capa_1" xmlns="http://www.w3.org/2000/svg" xmlns:xlink="http://www.w3.org/1999/xlink" x="0px" y="0px"
	 viewBox="0 0 472 472" style="enable-background:new 0 0 472 472;" xml:space="preserve">
<g>
	<path style="fill:#CCCCCC;" d="M28,120h80c4.418,0,8-3.582,8-8s-3.582-8-8-8H76V72c0-4.418-3.582-8-8-8s-8,3.582-8,8v32H28
		c-4.418,0-8,3.582-8,8S23.582,120,28,120z"/>
	<path style="fill:#CCCCCC;" d="M196,120h80c4.418,0,8-3.582,8-8s-3.582-8-8-8h-32V72c0-4.418-3.582-8-8-8s-8,3.582-8,8v32h-32
		c-4.418,0-8,3.582-8,8S191.582,120,196,120z"/>
	<path style="fill:#CCCCCC;" d="M364,120h80c4.418,0,8-3.582,8-8s-3.582-8-8-8h-32V72c0-4.418-3.582-8-8-8s-8,3.582-8,8v32h-32
		c-4.418,0-8,3.582-8,8S359.582,120,364,120z"/>
	<path style="fill:#CCCCCC;" d="M108,456H76v-32c0-4.418-3.582-8-8-8s-8,3.582-8,8v32H28c-4.418,0-8,3.582-8,8s3.582,8,8,8h80
		c4.418,0,8-3.582,8-8S112.418,456,108,456z"/>
	<path style="fill:#CCCCCC;" d="M276,456h-32v-32c0-4.418-3.582-8-8-8s-8,3.582-8,8v32h-32c-4.418,0-8,3.582-8,8s3.582,8,8,8h80
		c4.418,0,8-3.582,8-8S280.418,456,276,456z"/>
	<path style="fill:#CCCCCC;" d="M444,456h-32v-32c0-4.418-3.582-8-8-8s-8,3.582-8,8v32h-32c-4.418,0-8,3.582-8,8s3.582,8,8,8h80
		c4.418,0,8-3.582,8-8S448.418,456,444,456z"/>
</g>
<g>
	<path style="fill:#29485A;" d="M404,144c0-4.418-3.582-8-8-8s-8,3.582-8,8v8c0,4.418-3.582,8-8,8H92c-4.418,0-8-3.582-8-8v-8
		c0-4.418-3.582-8-8-8s-8,3.582-8,8v8c0,13.255,10.745,24,24,24h136v24c0,4.418,3.582,8,8,8s8-3.582,8-8v-24h136
		c13.255,0,24-10.745,24-24V144z"/>
	<path style="fill:#29485A;" d="M396,328c4.418,0,8-3.582,8-8v-8c0-13.255-10.745-24-24-24H244v-24c0-4.418-3.582-8-8-8
		s-8,3.582-8,8v24H92c-13.255,0-24,10.745-24,24v8c0,4.418,3.582,8,8,8s8-3.582,8-8v-8c0-4.418,3.582-8,8-8h288c4.418,0,8,3.582,8,8
		v8C388,324.418,391.582,328,396,328z"/>
</g>
<g>
	<path style="fill:#29ABE2;" d="M20,0h96c8.837,0,16,7.163,16,16v48c0,8.837-7.163,16-16,16H20c-8.837,0-16-7.163-16-16V16
		C4,7.163,11.163,0,20,0z"/>
	<path style="fill:#29ABE2;" d="M188,0h96c8.837,0,16,7.163,16,16v48c0,8.837-7.163,16-16,16h-96c-8.837,0-16-7.163-16-16V16
		C172,7.163,179.163,0,188,0z"/>
	<path style="fill:#29ABE2;" d="M356,0h96c8.837,0,16,7.163,16,16v48c0,8.837-7.163,16-16,16h-96c-8.837,0-16-7.163-16-16V16
		C340,7.163,347.163,0,356,0z"/>
	<path style="fill:#29ABE2;" d="M20,352h96c8.837,0,16,7.163,16,16v48c0,8.837-7.163,16-16,16H20c-8.837,0-16-7.163-16-16v-48
		C4,359.163,11.163,352,20,352z"/>
	<path style="fill:#29ABE2;" d="M188,352h96c8.837,0,16,7.163,16,16v48c0,8.837-7.163,16-16,16h-96c-8.837,0-16-7.163-16-16v-48
		C172,359.163,179.163,352,188,352z"/>
	<path style="fill:#29ABE2;" d="M356,352h96c8.837,0,16,7.163,16,16v48c0,8.837-7.163,16-16,16h-96c-8.837,0-16-7.163-16-16v-48
		C340,359.163,347.163,352,356,352z"/>
</g>
<path style="fill:#06AAE9;" d="M92,200h288c8.837,0,16,7.163,16,16v32c0,8.837-7.163,16-16,16H92c-8.837,0-16-7.163-16-16v-32
	C76,207.163,83.163,200,92,200z"/>
<path style="fill:#C1272D;" d="M356,248c-8.837,0-16-7.163-16-16c0-8.837,7.163-16,16-16s16,7.163,16,16
	C372,240.837,364.837,248,356,248z"/>
<path style="fill:#E6E6E6;" d="M268,240H108c-4.418,0-8-3.582-8-8s3.582-8,8-8h160c4.418,0,8,3.582,8,8S272.418,240,268,240z"/>
<path style="fill:#F8CF26;" d="M320,240h-22.4c-4.418,0-8-3.582-8-8s3.582-8,8-8H320c4.418,0,8,3.582,8,8S324.418,240,320,240z"/>
<g>
</g>
<g>
</g>
<g>
</g>
<g>
</g>
<g>
</g>
<g>
</g>
<g>
</g>
<g>
</g>
<g>
</g>
<g>
</g>
<g>
</g>
<g>
</g>
<g>
</g>
<g>
</g>
<g>
</g>
</svg>
