<?xml version="1.0" encoding="iso-8859-1"?>
<!-- Generator: Adobe Illustrator 19.0.0, SVG Export Plug-In . SVG Version: 6.00 Build 0)  -->
<svg version="1.1" id="Capa_1" xmlns="http://www.w3.org/2000/svg" xmlns:xlink="http://www.w3.org/1999/xlink" x="0px" y="0px"
	 viewBox="0 0 480.504 480.504" style="enable-background:new 0 0 480.504 480.504;" xml:space="preserve">
<path style="fill:#0378A3;" d="M416.252,344h40c8.999-0.166,16.161-7.593,16-16.592V136.592c0.161-8.999-7.001-16.426-16-16.592
	h-432c-8.999,0.166-16.161,7.593-16,16.592v190.816c-0.161,8.999,7.001,16.426,16,16.592h184"/>
<path style="fill:#29485A;" d="M352.252,312h-8v-16h-16v-48h10.664h101.336v48h-16v16h-8"/>
<path style="fill:#CCCCCC;" d="M384.252,480.504c-4.418,0-8-3.582-8-8v-192c0-4.418,3.582-8,8-8s8,3.582,8,8v192
	C392.252,476.922,388.67,480.504,384.252,480.504z"/>
<path style="fill:#29485A;" d="M208.252,312h-8v-16h-16v-48h10.664h101.336v48h-16v16h-8"/>
<path style="fill:#CCCCCC;" d="M240.252,480.504c-4.418,0-8-3.582-8-8v-192c0-4.418,3.582-8,8-8s8,3.582,8,8v192
	C248.252,476.922,244.67,480.504,240.252,480.504z"/>
<g>
	<path style="fill:#29485A;" d="M136.252,312v-16h16v-48H50.916H40.252v48h16v16h8H136.252z"/>
	<path style="fill:#29485A;" d="M64.252,152H50.916H40.252v48h16v16h8h72v-16h16v-48h-24"/>
	<path style="fill:#29485A;" d="M280.252,216v-16h16v-48H194.916h-10.664v48h16v16h8H280.252z"/>
	<path style="fill:#29485A;" d="M424.252,216v-16h16v-48H338.916h-10.664v48h16v16h8H424.252z"/>
</g>
<path style="fill:#CCCCCC;" d="M96.252,192c-4.418,0-8-3.582-8-8V8c0-4.418,3.582-8,8-8s8,3.582,8,8v176
	C104.252,188.418,100.67,192,96.252,192z"/>
<g>
</g>
<g>
</g>
<g>
</g>
<g>
</g>
<g>
</g>
<g>
</g>
<g>
</g>
<g>
</g>
<g>
</g>
<g>
</g>
<g>
</g>
<g>
</g>
<g>
</g>
<g>
</g>
<g>
</g>
</svg>
