<?xml version="1.0" encoding="iso-8859-1"?>
<!-- Generator: Adobe Illustrator 19.0.0, SVG Export Plug-In . SVG Version: 6.00 Build 0)  -->
<svg version="1.1" id="Capa_1" xmlns="http://www.w3.org/2000/svg" xmlns:xlink="http://www.w3.org/1999/xlink" x="0px" y="0px"
	 viewBox="0 0 464 464" style="enable-background:new 0 0 464 464;" xml:space="preserve">
<path style="fill:#E6E6E6;" d="M438.224,342.664H25.776C11.602,342.726,0.062,331.286,0,317.113c0,0,0,0,0,0V61.552
	C0.062,47.378,11.602,35.938,25.776,36c0,0,0,0,0,0h412.448c14.174-0.062,25.714,11.378,25.776,25.552c0,0,0,0,0,0v255.56
	C463.938,331.286,452.398,342.726,438.224,342.664C438.224,342.664,438.224,342.664,438.224,342.664z"/>
<path style="fill:#999999;" d="M464,287.432H0v31.2c0,13.255,10.745,24,24,24h416c13.255,0,24-10.745,24-24V287.432z"/>
<path style="fill:#808080;" d="M209.904,342.664h44.192V420h-44.192V342.664z"/>
<path style="fill:#0071BC;" d="M344,220v-16h-10.88c-0.976-4.471-2.757-8.727-5.256-12.56l7.728-7.728L324.28,172.4l-7.728,7.728
	c-3.833-2.493-8.085-4.271-12.552-5.248V164h-16v10.88c-4.467,0.977-8.719,2.755-12.552,5.248l-7.728-7.728l-11.312,11.312
	l7.728,7.728c-2.499,3.833-4.28,8.089-5.256,12.56H248v16h10.88c0.976,4.471,2.757,8.727,5.256,12.56l-7.728,7.728L267.72,251.6
	l7.728-7.728c3.833,2.493,8.085,4.271,12.552,5.248V260h16v-10.88c4.467-0.977,8.719-2.755,12.552-5.248l7.728,7.728l11.312-11.312
	l-7.728-7.728c2.499-3.833,4.28-8.089,5.256-12.56H344z M296,234c-12.15,0-22-9.85-22-22s9.85-22,22-22s22,9.85,22,22
	C317.991,224.147,308.147,233.991,296,234z"/>
<path style="fill:#ED1C24;" d="M312,92h-9.472c-2.42-6.775-7.753-12.108-14.528-14.528V68h-16v9.472
	c-6.775,2.42-12.108,7.753-14.528,14.528H248v16h9.472c2.42,6.775,7.753,12.108,14.528,14.528V132h16v-9.472
	c6.775-2.42,12.108-7.753,14.528-14.528H312V92z M280,108c-4.418,0-8-3.582-8-8c0-4.418,3.582-8,8-8s8,3.582,8,8
	C288,104.418,284.418,108,280,108z"/>
<path style="fill:#06AAE9;" d="M240,156v-16h-33.648c-1.305-8.99-4.83-17.514-10.256-24.8l23.784-23.792l-11.312-11.312
	L184.8,103.912c-7.285-5.429-15.809-8.957-24.8-10.264V60h-16v33.648c-8.991,1.307-17.515,4.835-24.8,10.264L95.416,80.12
	L84.104,91.432l23.8,23.768c-5.426,7.286-8.951,15.81-10.256,24.8H64v16h33.648c1.307,8.991,4.835,17.515,10.264,24.8L84.12,204.584
	l11.312,11.312l23.768-23.8c7.286,5.426,15.81,8.951,24.8,10.256V236h16v-33.648c8.991-1.307,17.515-4.835,24.8-10.264
	l23.784,23.792l11.312-11.312l-23.8-23.768c5.426-7.286,8.951-15.81,10.256-24.8H240z M152,172c-13.255,0-24-10.745-24-24
	s10.745-24,24-24s24,10.745,24,24S165.255,172,152,172z"/>
<path style="fill:#999999;" d="M364.568,428H99.432c-4.418,0-8-3.582-8-8s3.582-8,8-8h265.136c4.418,0,8,3.582,8,8
	S368.986,428,364.568,428z"/>
<g>
</g>
<g>
</g>
<g>
</g>
<g>
</g>
<g>
</g>
<g>
</g>
<g>
</g>
<g>
</g>
<g>
</g>
<g>
</g>
<g>
</g>
<g>
</g>
<g>
</g>
<g>
</g>
<g>
</g>
</svg>
