<?xml version="1.0" encoding="iso-8859-1"?>
<!-- Generator: Adobe Illustrator 19.0.0, SVG Export Plug-In . SVG Version: 6.00 Build 0)  -->
<svg version="1.1" id="Capa_1" xmlns="http://www.w3.org/2000/svg" xmlns:xlink="http://www.w3.org/1999/xlink" x="0px" y="0px"
	 viewBox="0 0 464.025 464.025" style="enable-background:new 0 0 464.025 464.025;" xml:space="preserve">
<path style="fill:#E6E6E6;" d="M328.025,336.013H21.801c-12.627-0.643-22.36-11.37-21.776-24v-240
	c-0.584-12.63,9.149-23.357,21.776-24h348.448c12.627,0.643,22.36,11.37,21.776,24v56"/>
<path style="fill:#808080;" d="M176.025,336.013h40v72h-40V336.013z"/>
<path style="fill:#F2F2F2;" d="M344.025,128.012h104c8.837,0,16,7.163,16,16v240c0,8.837-7.163,16-16,16h-104
	c-8.837,0-16-7.163-16-16v-240C328.025,135.176,335.188,128.012,344.025,128.012z"/>
<path style="fill:#999999;" d="M0.025,304.013h328v32H22.849c-12.605,0-22.824-10.219-22.824-22.824l0,0L0.025,304.013z"/>
<g>
	<path style="fill:#333333;" d="M328.025,160.012h136v-16c0-8.837-7.163-16-16-16h-104c-8.837,0-16,7.163-16,16V160.012z"/>
	<path style="fill:#333333;" d="M328.025,360.013h136v24c0,8.837-7.163,16-16,16h-104c-8.837,0-16-7.163-16-16V360.013z"/>
</g>
<g>
	<path style="fill:#0378A3;" d="M360.025,240.012h24v-24l48,48l-48,48v-24h-24"/>
	<path style="fill:#0378A3;" d="M296.025,216.012h-80v40l-72-72l72-72v40h80"/>
</g>
<path style="fill:#999999;" d="M296.025,416.013h-200c-4.418,0-8-3.582-8-8s3.582-8,8-8h200c4.418,0,8,3.582,8,8
	S300.443,416.013,296.025,416.013z"/>
<g>
</g>
<g>
</g>
<g>
</g>
<g>
</g>
<g>
</g>
<g>
</g>
<g>
</g>
<g>
</g>
<g>
</g>
<g>
</g>
<g>
</g>
<g>
</g>
<g>
</g>
<g>
</g>
<g>
</g>
</svg>
