<?xml version="1.0" encoding="iso-8859-1"?>
<!-- Generator: Adobe Illustrator 19.0.0, SVG Export Plug-In . SVG Version: 6.00 Build 0)  -->
<svg version="1.1" id="Capa_1" xmlns="http://www.w3.org/2000/svg" xmlns:xlink="http://www.w3.org/1999/xlink" x="0px" y="0px"
	 viewBox="0 0 464.143 464.143" style="enable-background:new 0 0 464.143 464.143;" xml:space="preserve">
<path style="fill:#E6E6E6;" d="M368.052,272.625h47.2c27.491-0.493,49.376-23.178,48.884-50.668
	c-0.48-26.796-22.087-48.403-48.884-48.884c-10.139,0.016-20.011,3.251-28.192,9.24c2.473-9.099,3.74-18.483,3.768-27.912
	c1.344-57.161-43.904-104.589-101.065-105.934c-48.34-1.137-91.028,31.339-102.831,78.23
	c-11.005-10.127-25.396-15.779-40.352-15.848c-34.042,0.325-61.376,28.182-61.056,62.224c0.025,7.868,1.525,15.661,4.424,22.976
	c-8.808-14.225-24.325-22.908-41.056-22.976c-27.491,0.493-49.376,23.178-48.884,50.668c0.48,26.796,22.087,48.403,48.884,48.884
	h47.16"/>
<path style="fill:#3593B5;" d="M232.052,192.625c33.28,13.472,70.72,21.16,104,7.696v93.32c0,101.016-104,122.064-104,122.064
	s-104-21.048-104-122.064v-93.32C161.332,213.785,198.772,206.097,232.052,192.625L232.052,192.625z"/>
<path style="fill:#808080;" d="M266.34,299.145c-4.418,0-8-3.582-8-8v-19.6c-1.045-13.513-12.763-23.673-26.288-22.792
	c-13.516-0.855-25.218,9.291-26.288,22.792v19.6c0,4.418-3.582,8-8,8s-8-3.582-8-8v-19.6c1.038-22.356,19.926-39.682,42.288-38.792
	c22.365-0.899,41.259,16.432,42.288,38.792v19.6C274.34,295.563,270.758,299.145,266.34,299.145z"/>
<path style="fill:#F8CF26;" d="M184.052,284.985h96v73.92h-96V284.985z"/>
<path style="fill:#4D4D4D;" d="M247.436,313.545c0-8.496-6.888-15.384-15.384-15.384c-8.496,0-15.384,6.888-15.384,15.384
	c0.034,5.27,2.839,10.133,7.384,12.8v9.6c0,4.418,3.582,8,8,8s8-3.582,8-8v-9.6C244.597,323.678,247.402,318.815,247.436,313.545z"
	/>
<g>
</g>
<g>
</g>
<g>
</g>
<g>
</g>
<g>
</g>
<g>
</g>
<g>
</g>
<g>
</g>
<g>
</g>
<g>
</g>
<g>
</g>
<g>
</g>
<g>
</g>
<g>
</g>
<g>
</g>
</svg>
