<?xml version="1.0" encoding="iso-8859-1"?>
<!-- Generator: Adobe Illustrator 19.0.0, SVG Export Plug-In . SVG Version: 6.00 Build 0)  -->
<svg version="1.1" id="Capa_1" xmlns="http://www.w3.org/2000/svg" xmlns:xlink="http://www.w3.org/1999/xlink" x="0px" y="0px"
	 viewBox="0 0 480 480" style="enable-background:new 0 0 480 480;" xml:space="preserve">
<path style="fill:#E6E6E6;" d="M423.2,128.058c-10.09,0.001-19.935,3.113-28.192,8.912c2.47-8.758,3.738-17.812,3.768-26.912
	C397.771,52.656,350.423,6.937,293.021,7.942c-45.742,0.801-85.584,31.412-98.141,75.405c-11.148-9.827-25.491-15.262-40.352-15.288
	c-33.427-0.288-60.761,26.573-61.056,60c0.027,7.603,1.53,15.129,4.424,22.16c-9.056-13.856-24.503-22.194-41.056-22.16
	c-26.51,0-48,21.49-48,48s21.49,48,48,48H423.2c26.51,0,48-21.49,48-48S449.71,128.058,423.2,128.058L423.2,128.058z"/>
<g>
	<path style="fill:#29485A;" d="M240,264.058c4.418,0,8-3.582,8-8v-48c0-4.418-3.582-8-8-8s-8,3.582-8,8v48
		C232,260.477,235.582,264.058,240,264.058z"/>
	<path style="fill:#29485A;" d="M472,448.058H256c-0.685,0.045-1.36,0.183-2.008,0.408c-1.395-2.57-3.467-4.709-5.992-6.184v-25.424
		c0-4.418-3.582-8-8-8s-8,3.582-8,8v25.392c-2.525,1.475-4.597,3.614-5.992,6.184c-0.65-0.214-1.325-0.341-2.008-0.376H8
		c-4.418,0-8,3.582-8,8s3.582,8,8,8h216c0.685-0.045,1.36-0.183,2.008-0.408c4.102,7.732,13.695,10.675,21.427,6.573
		c2.799-1.485,5.088-3.774,6.573-6.573c0.643,0.224,1.313,0.361,1.992,0.408h216c4.418,0,8-3.582,8-8S476.418,448.058,472,448.058
		L472,448.058z"/>
	<path style="fill:#29485A;" d="M240,360.058c4.418,0,8-3.582,8-8v-40c0-4.418-3.582-8-8-8s-8,3.582-8,8v40
		C232,356.477,235.582,360.058,240,360.058z"/>
</g>
<path style="fill:#06AAE9;" d="M96,256.058h288c8.837,0,16,7.163,16,16v32c0,8.837-7.163,16-16,16H96c-8.837,0-16-7.163-16-16v-32
	C80,263.222,87.163,256.058,96,256.058z"/>
<path style="fill:#ED1C24;" d="M360,304.058c-8.837,0-16-7.163-16-16s7.163-16,16-16s16,7.163,16,16S368.837,304.058,360,304.058z"
	/>
<path style="fill:#F2F2F2;" d="M272,296.058H112c-4.418,0-8-3.582-8-8s3.582-8,8-8h160c4.418,0,8,3.582,8,8
	S276.418,296.058,272,296.058z"/>
<path style="fill:#F8CF26;" d="M328,296.058h-24c-4.418,0-8-3.582-8-8s3.582-8,8-8h24c4.418,0,8,3.582,8,8
	S332.418,296.058,328,296.058z"/>
<path style="fill:#3B6882;" d="M96,352.058h288c8.837,0,16,7.163,16,16v32c0,8.837-7.163,16-16,16H96c-8.837,0-16-7.163-16-16v-32
	C80,359.222,87.163,352.058,96,352.058z"/>
<path style="fill:#ED1C24;" d="M360,400.058c-8.837,0-16-7.163-16-16s7.163-16,16-16s16,7.163,16,16S368.837,400.058,360,400.058z"
	/>
<path style="fill:#F2F2F2;" d="M272,392.058H112c-4.418,0-8-3.582-8-8s3.582-8,8-8h160c4.418,0,8,3.582,8,8
	S276.418,392.058,272,392.058z"/>
<path style="fill:#F8CF26;" d="M328,392.058h-24c-4.418,0-8-3.582-8-8s3.582-8,8-8h24c4.418,0,8,3.582,8,8
	S332.418,392.058,328,392.058z"/>
<path style="fill:#29485A;" d="M240,184.058c4.418,0,8-3.582,8-8v-16c0-4.418-3.582-8-8-8s-8,3.582-8,8v16
	C232,180.477,235.582,184.058,240,184.058z"/>
<g>
</g>
<g>
</g>
<g>
</g>
<g>
</g>
<g>
</g>
<g>
</g>
<g>
</g>
<g>
</g>
<g>
</g>
<g>
</g>
<g>
</g>
<g>
</g>
<g>
</g>
<g>
</g>
<g>
</g>
</svg>
