<?xml version="1.0" encoding="iso-8859-1"?>
<!-- Generator: Adobe Illustrator 19.0.0, SVG Export Plug-In . SVG Version: 6.00 Build 0)  -->
<svg version="1.1" id="Capa_1" xmlns="http://www.w3.org/2000/svg" xmlns:xlink="http://www.w3.org/1999/xlink" x="0px" y="0px"
	 viewBox="0 0 480.971 480.971" style="enable-background:new 0 0 480.971 480.971;" xml:space="preserve">
<path style="fill:#F8CF26;" d="M282.674,209.787c7.812,0.183,13.998,6.66,13.824,14.472v7.2l-11.424,53.808
	c-1.232,6.512-6.869,11.264-13.496,11.376h-78.72c-4.72-0.127-8.454-4.039-8.36-8.76v-61.64c-0.032-4.796,2.284-9.304,6.2-12.072
	l18.6-12.88c16.581-11.585,28.882-28.312,35-47.592c1.612-5.326,6.492-8.991,12.056-9.056h0.064
	c7.278,0.221,12.999,6.299,12.778,13.577c-0.027,0.897-0.146,1.789-0.354,2.663c-3.201,15.019-9.081,29.338-17.36,42.272
	l-4.256,6.632h37.432"/>
<g>
	<path style="fill:#3593B5;" d="M149.89,324.643c-2.122,0-4.156-0.844-5.656-2.344c-42.333-41.931-45.392-109.334-7.032-154.928
		l6.544-7.848c2.909-3.325,7.963-3.663,11.289-0.754c3.213,2.811,3.653,7.649,0.999,10.994l-6.536,7.848
		c-33.013,39.254-30.382,97.271,6.048,133.376c3.124,3.125,3.123,8.19-0.002,11.314C154.045,323.8,152.011,324.643,149.89,324.643
		L149.89,324.643z"/>
	<path style="fill:#3593B5;" d="M119.338,372.643c-2.122,0-4.156-0.844-5.656-2.344c-67.184-66.587-72.035-173.583-11.152-245.976
		l10.664-12.8c2.828-3.395,7.873-3.856,11.268-1.028s3.856,7.873,1.028,11.268l-10.672,12.8
		c-55.541,66.053-51.115,163.669,10.176,224.424c3.124,3.125,3.123,8.19-0.002,11.314
		C123.493,371.8,121.459,372.643,119.338,372.643L119.338,372.643z"/>
	<path style="fill:#3593B5;" d="M89.298,444.643c-2.122,0-4.156-0.844-5.656-2.344C-20.836,338.741-28.374,172.343,66.314,59.763
		l16.856-20.24c2.828-3.395,7.873-3.856,11.268-1.028s3.856,7.873,1.028,11.268l-16.864,20.24
		C-10.745,176.247-3.622,333.27,94.978,430.987c3.124,3.125,3.123,8.19-0.002,11.314C93.471,443.806,91.427,444.649,89.298,444.643z
		"/>
	<path style="fill:#3593B5;" d="M331.106,324.643c-4.418-0.002-7.999-3.585-7.997-8.003c0.001-1.87,0.656-3.68,1.853-5.117
		l6.536-7.848c33.013-39.254,30.382-97.271-6.048-133.376c-3.069-3.178-2.982-8.243,0.196-11.312c3.1-2.994,8.015-2.994,11.116,0
		c42.333,41.931,45.392,109.334,7.032,154.928l-6.544,7.848C335.731,323.587,333.48,324.642,331.106,324.643z"/>
	<path style="fill:#3593B5;" d="M361.65,372.643c-4.418-0.002-7.999-3.585-7.997-8.003c0.001-1.87,0.656-3.68,1.853-5.117
		l10.672-12.8c55.543-66.054,51.113-163.672-10.184-224.424c-3.124-3.126-3.122-8.192,0.004-11.316
		c3.126-3.124,8.192-3.122,11.316,0.004c67.184,66.587,72.035,173.583,11.152,245.976l-10.664,12.8
		C366.281,371.59,364.027,372.645,361.65,372.643z"/>
	<path style="fill:#3593B5;" d="M391.698,444.643c-4.418-0.002-7.999-3.585-7.997-8.003c0.001-1.87,0.656-3.68,1.853-5.117
		l16.864-20.24c89.341-106.249,82.207-263.273-16.4-360.984c-3.298-2.94-3.589-7.997-0.649-11.295
		c2.94-3.298,7.997-3.589,11.295-0.649c0.223,0.199,0.434,0.409,0.633,0.632c104.495,103.543,112.057,269.942,17.384,382.536
		l-16.856,20.24C396.31,443.583,394.066,444.638,391.698,444.643L391.698,444.643z"/>
</g>
<path style="fill:#ED1C24;" d="M312.498,120.643c-8.837,0-16-7.163-16-16c0,8.837-7.163,16-16,16c8.837,0,16,7.163,16,16
	C296.498,127.807,303.662,120.643,312.498,120.643z"/>
<g>
</g>
<g>
</g>
<g>
</g>
<g>
</g>
<g>
</g>
<g>
</g>
<g>
</g>
<g>
</g>
<g>
</g>
<g>
</g>
<g>
</g>
<g>
</g>
<g>
</g>
<g>
</g>
<g>
</g>
</svg>
