<?xml version="1.0" encoding="iso-8859-1"?>
<!-- Generator: Adobe Illustrator 19.0.0, SVG Export Plug-In . SVG Version: 6.00 Build 0)  -->
<svg version="1.1" id="Capa_1" xmlns="http://www.w3.org/2000/svg" xmlns:xlink="http://www.w3.org/1999/xlink" x="0px" y="0px"
	 viewBox="0 0 472 472" style="enable-background:new 0 0 472 472;" xml:space="preserve">
<path style="fill:#FBB03B;" d="M348,288c0,0,32,8,64-24c-8.671-3.049-17.029-6.923-24.96-11.568
	c-13.08-8.052-19.592-23.531-16.2-38.512C377.672,182.2,386.152,87.552,340,48c0,0-40-48-104-48S132,48,132,48
	c-46.448,39.816-37.6,134.848-30.808,166.016c3.389,14.912-3.089,30.328-16.112,38.344C77.114,257.038,68.715,260.937,60,264
	c32,32,64,24,64,24c69.823-29.467,148.451-30.205,218.816-2.056L348,288z"/>
<path style="fill:#F0D0B4;" d="M348,144l-4,66.248C340.32,278.864,294.32,320,236.8,320h-1.6c-57.52,0-103.52-41.136-107.2-109.752
	L124,144H348z"/>
<path style="fill:#3593B5;" d="M20,472v-23.128C20,382.12,68.584,336,132,336h48l56,56l56-56h48c63.416,0,112,46.12,112,112.872V472
	"/>
<g>
	<path style="fill:#F7931E;" d="M212,144.104c-4.476,0-8.104-3.628-8.104-8.104l0,0v-32c0-4.476,3.628-8.104,8.104-8.104
		c4.476,0,8.104,3.628,8.104,8.104v32C220.104,140.476,216.476,144.104,212,144.104L212,144.104z"/>
	<path style="fill:#F7931E;" d="M164,144.104c-4.476,0-8.104-3.628-8.104-8.104l0,0v-32c0-4.476,3.628-8.104,8.104-8.104
		c4.476,0,8.104,3.628,8.104,8.104v32C172.104,140.476,168.476,144.104,164,144.104L164,144.104z"/>
	<path style="fill:#F7931E;" d="M260,144.104c-4.476,0-8.104-3.628-8.104-8.104l0,0v-32c0-4.476,3.628-8.104,8.104-8.104
		s8.104,3.628,8.104,8.104v32C268.104,140.476,264.476,144.104,260,144.104L260,144.104z"/>
	<path style="fill:#F7931E;" d="M308,144.104c-4.476,0-8.104-3.628-8.104-8.104l0,0v-32c0-4.476,3.628-8.104,8.104-8.104
		s8.104,3.628,8.104,8.104v32C316.104,140.476,312.476,144.104,308,144.104L308,144.104z"/>
</g>
<path style="fill:#025A7A;" d="M380,224c8.837,0,16-7.163,16-16v-48c0-8.837-7.163-16-16-16h-32l-5.712,82.216L380,224z"/>
<path style="fill:#666666;" d="M276,280.104h-16c-4.476,0-8.104-3.628-8.104-8.104s3.628-8.104,8.104-8.104h16
	c48.52-0.057,87.839-39.376,87.896-87.896c0-4.476,3.628-8.104,8.104-8.104s8.104,3.628,8.104,8.104
	C380.038,233.468,333.468,280.038,276,280.104z"/>
<circle style="fill:#025A7A;" cx="244" cy="272" r="24"/>
<g>
</g>
<g>
</g>
<g>
</g>
<g>
</g>
<g>
</g>
<g>
</g>
<g>
</g>
<g>
</g>
<g>
</g>
<g>
</g>
<g>
</g>
<g>
</g>
<g>
</g>
<g>
</g>
<g>
</g>
</svg>
