<?xml version="1.0" encoding="iso-8859-1"?>
<!-- Generator: Adobe Illustrator 19.0.0, SVG Export Plug-In . SVG Version: 6.00 Build 0)  -->
<svg version="1.1" id="Capa_1" xmlns="http://www.w3.org/2000/svg" xmlns:xlink="http://www.w3.org/1999/xlink" x="0px" y="0px"
	 viewBox="0 0 464.036 464.036" style="enable-background:new 0 0 464.036 464.036;" xml:space="preserve">
<path style="fill:#808080;" d="M176.036,316.018h40v80h-40V316.018z"/>
<path style="fill:#E6E6E6;" d="M328.036,316.018H21.812c-11.474,0.559-21.228-8.289-21.787-19.763
	c-0.036-0.745-0.032-1.492,0.011-2.237v-220c-0.062-12.088,9.687-21.938,21.775-22c0,0,0,0,0.001,0H370.26
	c12.088,0.062,21.838,9.911,21.776,21.999c0,0,0,0,0,0.001v58"/>
<path style="fill:#999999;" d="M296.036,412.018h-200c-4.418,0-8-3.582-8-8s3.582-8,8-8h200c4.418,0,8,3.582,8,8
	S300.454,412.018,296.036,412.018z"/>
<path style="fill:#F2F2F2;" d="M344.036,132.018h104c8.837,0,16,7.163,16,16v240c0,8.837-7.163,16-16,16h-104
	c-8.837,0-16-7.163-16-16v-240C328.036,139.181,335.2,132.018,344.036,132.018z"/>
<path style="fill:#999999;" d="M20.788,316.018h307.248v-40h-328v19.248C0.036,306.727,9.327,316.018,20.788,316.018
	C20.788,316.018,20.788,316.018,20.788,316.018z"/>
<g>
	<path style="fill:#333333;" d="M464.036,164.018h-136v-16c0-8.837,7.163-16,16-16h104c8.837,0,16,7.163,16,16V164.018z"/>
	<path style="fill:#333333;" d="M464.036,364.018h-136v24c0,8.837,7.163,16,16,16h104c8.837,0,16-7.163,16-16V364.018z"/>
</g>
<path style="fill:#666666;" d="M248.036,164.018c-4.418,0-8-3.582-8-8v-28c-1.184-20.949-19.042-37.022-40-36
	c-20.958-1.022-38.816,15.051-40,36v28c0,4.418-3.582,8-8,8s-8-3.582-8-8v-28c1.18-29.789,26.205-53.027,56-52
	c29.795-1.027,54.82,22.211,56,52v28C256.036,160.436,252.454,164.018,248.036,164.018z"/>
<g>
	<path style="fill:#F8CF26;" d="M144.036,156.018h112v88h-112V156.018z"/>
	<path style="fill:#F8CF26;" d="M416.036,279.618v-4.24l-5.336-22.904l5.336-15.272L410.7,221.93l5.336-15.264l-16-15.272
		l-16,15.272v72.952c-11.59,6.109-17.859,19.046-15.472,31.928c3.992,17.311,21.263,28.109,38.574,24.116
		c14.007-3.23,24.17-15.361,24.898-29.716C431.92,294.904,425.784,284.807,416.036,279.618z"/>
</g>
<g>
	<path style="fill:#333333;" d="M200.036,228.018c-4.418,0-8-3.582-8-8v-16c0-4.418,3.582-8,8-8s8,3.582,8,8v16
		C208.036,224.436,204.454,228.018,200.036,228.018z"/>
	<path style="fill:#333333;" d="M200.036,204.018c-8.837,0-16-7.163-16-16s7.163-16,16-16s16,7.163,16,16
		S208.873,204.018,200.036,204.018z"/>
</g>
<g>
</g>
<g>
</g>
<g>
</g>
<g>
</g>
<g>
</g>
<g>
</g>
<g>
</g>
<g>
</g>
<g>
</g>
<g>
</g>
<g>
</g>
<g>
</g>
<g>
</g>
<g>
</g>
<g>
</g>
</svg>
