<?xml version="1.0" encoding="iso-8859-1"?>
<!-- Generator: Adobe Illustrator 19.0.0, SVG Export Plug-In . SVG Version: 6.00 Build 0)  -->
<svg version="1.1" id="Capa_1" xmlns="http://www.w3.org/2000/svg" xmlns:xlink="http://www.w3.org/1999/xlink" x="0px" y="0px"
	 viewBox="0 0 464 464" style="enable-background:new 0 0 464 464;" xml:space="preserve">
<path style="fill:#E6E6E6;" d="M328,320H21.776C9.688,319.938-0.061,310.089,0,298.001c0,0,0,0,0-0.001V78
	c-0.062-12.088,9.687-21.938,21.775-22c0,0,0,0,0.001,0h348.448C382.313,56.062,392.062,65.911,392,78c0,0,0,0,0,0.001v66"/>
<path style="fill:#808080;" d="M176,320h40v80h-40V320z"/>
<path style="fill:#F2F2F2;" d="M344,144h104c8.837,0,16,7.163,16,16v224c0,8.837-7.163,16-16,16H344c-8.837,0-16-7.163-16-16V160
	C328,151.164,335.164,144,344,144z"/>
<g>
	<path style="fill:#999999;" d="M296,408H96c-4.418,0-8-3.582-8-8s3.582-8,8-8h200c4.418,0,8,3.582,8,8S300.419,408,296,408z"/>
	<path style="fill:#999999;" d="M0,280h328v40H22.4C10.029,320,0,309.971,0,297.6L0,280z"/>
</g>
<path style="fill:#333333;" d="M328,176h136v-14.872c0.004-9.455-7.657-17.124-17.112-17.128c-0.005,0-0.011,0-0.016,0H345.128
	c-9.455-0.004-17.124,7.657-17.128,17.112c0,0.005,0,0.011,0,0.016V176z"/>
<circle style="fill:#025A7A;" cx="208" cy="168" r="80"/>
<path style="fill:#333333;" d="M328,360h136v24c0,8.837-7.163,16-16,16H344c-8.837,0-16-7.163-16-16V360z"/>
<circle style="fill:#025A7A;" cx="396" cy="268" r="44"/>
<g>
	<path style="fill:#F2F2F2;" d="M192,216c-2.122,0-4.156-0.844-5.656-2.344l-32-32c-3.069-3.178-2.981-8.243,0.197-11.312
		c3.1-2.994,8.015-2.994,11.115,0L192,196.688l58.344-58.344c3.178-3.07,8.243-2.982,11.312,0.196c2.994,3.1,2.994,8.015,0,11.116
		l-64,64C196.156,215.157,194.122,216,192,216L192,216z"/>
	<path style="fill:#F2F2F2;" d="M389.336,288c-1.971-0.005-3.871-0.737-5.336-2.056l-13.336-12
		c-3.341-2.891-3.706-7.943-0.815-11.284c2.891-3.341,7.943-3.706,11.284-0.815c0.08,0.069,0.158,0.139,0.235,0.211l8,7.2
		l21.312-19.2c3.224-3.021,8.287-2.855,11.308,0.369c3.021,3.224,2.855,8.287-0.369,11.308c-0.077,0.072-0.155,0.142-0.235,0.211
		l-26.664,24C393.243,287.275,391.324,288.008,389.336,288L389.336,288z"/>
</g>
<g>
</g>
<g>
</g>
<g>
</g>
<g>
</g>
<g>
</g>
<g>
</g>
<g>
</g>
<g>
</g>
<g>
</g>
<g>
</g>
<g>
</g>
<g>
</g>
<g>
</g>
<g>
</g>
<g>
</g>
</svg>
