<?xml version="1.0" encoding="iso-8859-1"?>
<!-- Generator: Adobe Illustrator 19.0.0, SVG Export Plug-In . SVG Version: 6.00 Build 0)  -->
<svg version="1.1" id="Capa_1" xmlns="http://www.w3.org/2000/svg" xmlns:xlink="http://www.w3.org/1999/xlink" x="0px" y="0px"
	 viewBox="0 0 464.033 464.033" style="enable-background:new 0 0 464.033 464.033;" xml:space="preserve">
<path style="fill:#F8CF26;" d="M425.352,464.016H38.68c-21.989-0.666-39.287-19.01-38.664-41v-287
	c-0.583-21.484,16.341-39.381,37.824-40h83.112c7.521,0.016,14.853,2.364,20.984,6.72l37.68,26.56
	c6.131,4.356,13.463,6.704,20.984,6.72h224.752c21.989,0.666,39.287,19.01,38.664,41v246
	C464.64,445.007,447.341,463.35,425.352,464.016z"/>
<circle style="fill:#FF0000;" cx="236.016" cy="300.016" r="132"/>
<path style="fill:#F2F2F2;" d="M296.016,300.016l-88-52v104L296.016,300.016z"/>
<path style="fill:#29485A;" d="M224.016,0.016h192v136h-192V0.016z"/>
<g>
	<path style="fill:#F2F2F2;" d="M248.016,24.016h24v24h-24V24.016z"/>
	<path style="fill:#F2F2F2;" d="M248.016,64.016h24v24h-24V64.016z"/>
	<path style="fill:#F2F2F2;" d="M368.016,24.016h24v24h-24V24.016z"/>
	<path style="fill:#F2F2F2;" d="M368.016,64.016h24v24h-24V64.016z"/>
	<path style="fill:#F2F2F2;" d="M248.016,104.016h24v24h-24V104.016z"/>
	<path style="fill:#F2F2F2;" d="M368.016,104.016h24v24h-24V104.016z"/>
</g>
<g>
</g>
<g>
</g>
<g>
</g>
<g>
</g>
<g>
</g>
<g>
</g>
<g>
</g>
<g>
</g>
<g>
</g>
<g>
</g>
<g>
</g>
<g>
</g>
<g>
</g>
<g>
</g>
<g>
</g>
</svg>
