<?xml version="1.0" encoding="iso-8859-1"?>
<!-- Generator: Adobe Illustrator 19.0.0, SVG Export Plug-In . SVG Version: 6.00 Build 0)  -->
<svg version="1.1" id="Capa_1" xmlns="http://www.w3.org/2000/svg" xmlns:xlink="http://www.w3.org/1999/xlink" x="0px" y="0px"
	 viewBox="0 0 480 480" style="enable-background:new 0 0 480 480;" xml:space="preserve">
<path style="fill:#29485A;" d="M472,451.992H256c-0.685,0.045-1.36,0.183-2.008,0.408c-1.395-2.57-3.467-4.709-5.992-6.184v-42.224
	c0-4.418-3.582-8-8-8s-8,3.582-8,8v42.224c-2.525,1.475-4.597,3.614-5.992,6.184c-0.648-0.225-1.323-0.363-2.008-0.408H8
	c-4.418,0-8,3.582-8,8s3.582,8,8,8h216c0.685-0.045,1.36-0.183,2.008-0.408c4.102,7.732,13.695,10.675,21.427,6.573
	c2.799-1.485,5.088-3.774,6.573-6.573c0.643,0.224,1.313,0.361,1.992,0.408h216c4.418,0,8-3.582,8-8S476.418,451.992,472,451.992z"
	/>
<path style="fill:#F8CF26;" d="M433.336,371.992H46.664c-21.989-0.666-39.287-19.01-38.664-41v-287
	c-0.583-21.484,16.341-39.381,37.824-40h83.112c7.521,0.016,14.853,2.364,20.984,6.72l37.68,26.56
	c6.131,4.356,13.463,6.704,20.984,6.72h224.752c21.989,0.666,39.287,19.01,38.664,41v246
	C472.623,352.982,455.325,371.326,433.336,371.992z"/>
<path style="fill:#0071BC;" d="M376,267.992v-16h-10.88c-0.976-4.471-2.757-8.727-5.256-12.56l7.728-7.728l-11.312-11.312
	l-7.728,7.728c-3.833-2.493-8.085-4.271-12.552-5.248v-10.88h-16v10.88c-4.467,0.977-8.719,2.755-12.552,5.248l-7.728-7.728
	l-11.312,11.312l7.728,7.728c-2.499,3.833-4.28,8.089-5.256,12.56H280v16h10.88c0.976,4.471,2.757,8.727,5.256,12.56l-7.728,7.728
	l11.312,11.312l7.728-7.728c3.833,2.493,8.085,4.271,12.552,5.248v10.88h16v-10.88c4.467-0.977,8.719-2.755,12.552-5.248
	l7.728,7.728l11.312-11.312l-7.728-7.728c2.499-3.833,4.28-8.089,5.256-12.56H376z M328,281.992c-12.15,0-22-9.85-22-22
	c0-12.15,9.85-22,22-22s22,9.85,22,22C349.991,272.138,340.147,281.983,328,281.992z"/>
<path style="fill:#ED1C24;" d="M344,139.992h-9.472c-2.42-6.775-7.753-12.108-14.528-14.528v-9.472h-16v9.472
	c-6.775,2.42-12.108,7.753-14.528,14.528H280v16h9.472c2.42,6.775,7.753,12.108,14.528,14.528v9.472h16v-9.472
	c6.775-2.42,12.108-7.753,14.528-14.528H344V139.992z M312,155.992c-4.418,0-8-3.582-8-8s3.582-8,8-8s8,3.582,8,8
	S316.418,155.992,312,155.992z"/>
<path style="fill:#06AAE9;" d="M272,203.992v-16h-33.648c-1.305-8.99-4.83-17.514-10.256-24.8L251.88,139.4l-11.312-11.312
	L216.8,151.904c-7.285-5.429-15.809-8.957-24.8-10.264v-33.648h-16v33.648c-8.991,1.307-17.515,4.835-24.8,10.264l-23.784-23.792
	l-11.312,11.312l23.8,23.768c-5.426,7.286-8.951,15.81-10.256,24.8H96v16h33.648c1.307,8.991,4.835,17.515,10.264,24.8
	l-23.792,23.784l11.312,11.312l23.768-23.8c7.286,5.426,15.81,8.951,24.8,10.256v33.648h16v-33.648
	c8.991-1.307,17.515-4.835,24.8-10.264l23.784,23.792l11.312-11.312l-23.8-23.768c5.426-7.286,8.951-15.81,10.256-24.8L272,203.992z
	 M184,219.992c-13.255,0-24-10.745-24-24s10.745-24,24-24s24,10.745,24,24S197.255,219.992,184,219.992z"/>
<g>
</g>
<g>
</g>
<g>
</g>
<g>
</g>
<g>
</g>
<g>
</g>
<g>
</g>
<g>
</g>
<g>
</g>
<g>
</g>
<g>
</g>
<g>
</g>
<g>
</g>
<g>
</g>
<g>
</g>
</svg>
