<?xml version="1.0" encoding="iso-8859-1"?>
<!-- Generator: Adobe Illustrator 19.0.0, SVG Export Plug-In . SVG Version: 6.00 Build 0)  -->
<svg version="1.1" id="Capa_1" xmlns="http://www.w3.org/2000/svg" xmlns:xlink="http://www.w3.org/1999/xlink" x="0px" y="0px"
	 viewBox="0 0 464.007 464.007" style="enable-background:new 0 0 464.007 464.007;" xml:space="preserve">
<path style="fill:#025A7A;" d="M0,280.003v48c0,13.256,35.816,24,80,24s80-10.744,80-24v-48"/>
<path style="fill:#F8CF26;" d="M450.664,136.003H317.336c-7.607-0.252-13.574-6.616-13.336-14.224V22.227
	c-0.238-7.608,5.729-13.972,13.336-14.224h29.296c2.654,0.01,5.238,0.849,7.392,2.4l13.28,9.44c2.156,1.551,4.744,2.39,7.4,2.4
	h75.96c7.601,0.252,13.565,6.606,13.336,14.208v85.328C464.238,129.387,458.271,135.751,450.664,136.003L450.664,136.003z"/>
<path style="fill:#357B95;" d="M0,232.003v48c0,13.256,35.816,24,80,24s80-10.744,80-24v-48"/>
<path style="fill:#48ACD2;" d="M0,184.003v48c0,13.256,35.816,24,80,24s80-10.744,80-24v-48"/>
<path style="fill:#F8CF26;" d="M450.664,296.003H317.336c-7.607-0.252-13.574-6.616-13.336-14.224v-99.552
	c-0.238-7.608,5.729-13.972,13.336-14.224h29.296c2.654,0.01,5.238,0.849,7.392,2.4l13.28,9.44c2.156,1.551,4.744,2.39,7.4,2.4
	h75.96c7.601,0.252,13.565,6.606,13.336,14.208v85.328C464.238,289.387,458.271,295.751,450.664,296.003L450.664,296.003z"/>
<path style="fill:#76C1DD;" d="M0,136.003v48c0,13.256,35.816,24,80,24s80-10.744,80-24v-48"/>
<path style="fill:#F8CF26;" d="M450.664,456.003H317.336c-7.607-0.252-13.574-6.616-13.336-14.224v-99.552
	c-0.238-7.608,5.729-13.972,13.336-14.224h29.296c2.654,0.01,5.238,0.849,7.392,2.4l13.28,9.44c2.156,1.551,4.744,2.39,7.4,2.4
	h75.96c7.601,0.252,13.565,6.606,13.336,14.208v85.328C464.238,449.387,458.271,455.751,450.664,456.003L450.664,456.003z"/>
<ellipse style="fill:#A4D6E8;" cx="80" cy="136.003" rx="80" ry="24"/>
<path style="fill:#29485A;" d="M272,240.003c4.418,0,8-3.582,8-8s-3.582-8-8-8h-32V86.883c0.336-4.095,3.9-7.161,8-6.88h24
	c4.418,0,8-3.582,8-8s-3.582-8-8-8h-24c-12.937-0.286-23.668,9.944-24,22.88v137.12h-32c-4.418,0-8,3.582-8,8s3.582,8,8,8h32v137.12
	c0.332,12.936,11.063,23.166,24,22.88h24c4.418,0,8-3.582,8-8s-3.582-8-8-8h-24c-4.1,0.281-7.664-2.785-8-6.88v-137.12H272z"/>
<g>
</g>
<g>
</g>
<g>
</g>
<g>
</g>
<g>
</g>
<g>
</g>
<g>
</g>
<g>
</g>
<g>
</g>
<g>
</g>
<g>
</g>
<g>
</g>
<g>
</g>
<g>
</g>
<g>
</g>
</svg>
