<?xml version="1.0" encoding="iso-8859-1"?>
<!-- Generator: Adobe Illustrator 19.0.0, SVG Export Plug-In . SVG Version: 6.00 Build 0)  -->
<svg version="1.1" id="Capa_1" xmlns="http://www.w3.org/2000/svg" xmlns:xlink="http://www.w3.org/1999/xlink" x="0px" y="0px"
	 viewBox="0 0 464.033 464.033" style="enable-background:new 0 0 464.033 464.033;" xml:space="preserve">
<path style="fill:#F8CF26;" d="M464.016,336.016c0,17.673-14.327,32-32,32H38.68c-21.989-0.666-39.287-19.01-38.664-41v-287
	c-0.583-21.484,16.341-39.381,37.824-40h83.112c7.521,0.016,14.853,2.364,20.984,6.72l37.68,26.56
	c6.131,4.356,13.463,6.704,20.984,6.72h224.752c21.989,0.666,39.287,19.01,38.664,41V336.016z"/>
<path style="fill:#F2F2F2;" d="M352.016,336.016h-232v-264h152l80,72V336.016z"/>
<path style="fill:#29485A;" d="M456.016,440.016H245.792c-1.397-2.389-3.387-4.379-5.776-5.776v-42.224c0-4.418-3.582-8-8-8
	s-8,3.582-8,8v42.224c-2.389,1.397-4.379,3.387-5.776,5.776H8.016c-4.418,0-8,3.582-8,8s3.582,8,8,8H218.24
	c4.345,7.608,14.035,10.254,21.643,5.909c2.462-1.406,4.503-3.447,5.909-5.909h210.224c4.418,0,8-3.582,8-8
	S460.435,440.016,456.016,440.016z"/>
<circle style="fill:#ED1C24;" cx="376.016" cy="320.016" r="88"/>
<path style="fill:#F2F2F2;" d="M436.936,312.016h-52.92v-52.92c0-4.418-3.582-8-8-8s-8,3.582-8,8v52.92h-52.92c-4.418,0-8,3.582-8,8
	s3.582,8,8,8h52.92v52.92c0,4.418,3.582,8,8,8s8-3.582,8-8v-52.92h52.92c4.418,0,8-3.582,8-8S441.355,312.016,436.936,312.016
	L436.936,312.016z"/>
<g>
	<path style="fill:#29485A;" d="M240.016,120.016h-88c-4.418,0-8-3.582-8-8s3.582-8,8-8h88c4.418,0,8,3.582,8,8
		S244.435,120.016,240.016,120.016z"/>
	<path style="fill:#29485A;" d="M240.016,152.016h-88c-4.418,0-8-3.582-8-8s3.582-8,8-8h88c4.418,0,8,3.582,8,8
		S244.435,152.016,240.016,152.016z"/>
	<path style="fill:#29485A;" d="M280.016,248.016h-128c-4.418,0-8-3.582-8-8s3.582-8,8-8h128c4.418,0,8,3.582,8,8
		S284.435,248.016,280.016,248.016z"/>
	<path style="fill:#29485A;" d="M256.016,280.016h-104c-4.418,0-8-3.582-8-8s3.582-8,8-8h104c4.418,0,8,3.582,8,8
		S260.435,280.016,256.016,280.016z"/>
	<path style="fill:#29485A;" d="M256.016,312.016h-104c-4.418,0-8-3.582-8-8s3.582-8,8-8h104c4.418,0,8,3.582,8,8
		S260.435,312.016,256.016,312.016z"/>
	<path style="fill:#29485A;" d="M320.016,184.016h-168c-4.418,0-8-3.582-8-8s3.582-8,8-8h168c4.418,0,8,3.582,8,8
		S324.435,184.016,320.016,184.016z"/>
	<path style="fill:#29485A;" d="M320.016,216.016h-168c-4.418,0-8-3.582-8-8s3.582-8,8-8h168c4.418,0,8,3.582,8,8
		S324.435,216.016,320.016,216.016z"/>
</g>
<path style="fill:#B3B3B3;" d="M272.016,72.016l80,72h-80V72.016z"/>
<g>
</g>
<g>
</g>
<g>
</g>
<g>
</g>
<g>
</g>
<g>
</g>
<g>
</g>
<g>
</g>
<g>
</g>
<g>
</g>
<g>
</g>
<g>
</g>
<g>
</g>
<g>
</g>
<g>
</g>
</svg>
