<?xml version="1.0" encoding="iso-8859-1"?>
<!-- Generator: Adobe Illustrator 19.0.0, SVG Export Plug-In . SVG Version: 6.00 Build 0)  -->
<svg version="1.1" id="Capa_1" xmlns="http://www.w3.org/2000/svg" xmlns:xlink="http://www.w3.org/1999/xlink" x="0px" y="0px"
	 viewBox="0 0 464 464" style="enable-background:new 0 0 464 464;" xml:space="preserve">
<path style="fill:#025A7A;" d="M0.001,328v93.504c0,23.472,59.096,42.496,132,42.496s132-19.024,132-42.496V328"/>
<path style="fill:#0378A3;" d="M0.001,240v87.664c0,22.28,59.096,40.336,132,40.336s132-18.056,132-40.336V248"/>
<path style="fill:#3593B5;" d="M0.001,137.6v102.064c0,22.28,59.096,40.336,132,40.336s132-18.056,132-40.336V135.28"/>
<path style="fill:#68AEC8;" d="M0.001,48v87.28c0,22.488,59.096,40.72,132,40.72s132-18.232,132-40.72V48"/>
<g>
	<path style="fill:#29485A;" d="M120.001,133.776V144c0,4.418,3.582,8,8,8c4.418,0,8-3.582,8-8v-10.224
		c7.653-4.418,10.275-14.204,5.856-21.856c-4.418-7.653-14.204-10.275-21.856-5.856s-10.275,14.204-5.856,21.856
		C115.549,130.352,117.568,132.372,120.001,133.776z"/>
	<path style="fill:#29485A;" d="M128.001,200c-8.81-0.022-15.97,7.102-15.992,15.912c-0.014,5.72,3.035,11.01,7.992,13.864V240
		c0,4.418,3.582,8,8,8c4.418,0,8-3.582,8-8v-10.224c7.635-4.396,10.26-14.149,5.864-21.784
		C139.01,203.035,133.721,199.986,128.001,200z"/>
	<path style="fill:#29485A;" d="M128.001,296c-8.81-0.022-15.97,7.102-15.992,15.912c-0.014,5.72,3.035,11.01,7.992,13.864V336
		c0,4.418,3.582,8,8,8c4.418,0,8-3.582,8-8v-10.224c7.635-4.396,10.26-14.149,5.864-21.784
		C139.01,299.035,133.721,295.986,128.001,296z"/>
	<path style="fill:#29485A;" d="M128.001,392c-8.81-0.022-15.97,7.102-15.992,15.912c-0.014,5.72,3.035,11.01,7.992,13.864V432
		c0,4.418,3.582,8,8,8c4.418,0,8-3.582,8-8v-10.224c7.635-4.396,10.26-14.149,5.864-21.784
		C139.01,395.035,133.721,391.986,128.001,392z"/>
</g>
<path style="fill:#F8CF26;" d="M387.329,216c8.837-20.247,32.414-29.497,52.661-20.661c20.247,8.837,29.497,32.413,20.661,52.661
	c-8.837,20.247-32.414,29.497-52.661,20.661c-9.246-4.035-16.625-11.415-20.661-20.661h-67.328v16h-32v-16h-32v16h-32v-48H387.329z"
	/>
<ellipse style="fill:#D7E9F0;" cx="132.001" cy="40" rx="132" ry="40"/>
<g>
</g>
<g>
</g>
<g>
</g>
<g>
</g>
<g>
</g>
<g>
</g>
<g>
</g>
<g>
</g>
<g>
</g>
<g>
</g>
<g>
</g>
<g>
</g>
<g>
</g>
<g>
</g>
<g>
</g>
</svg>
