<?xml version="1.0" encoding="iso-8859-1"?>
<!-- Generator: Adobe Illustrator 19.0.0, SVG Export Plug-In . SVG Version: 6.00 Build 0)  -->
<svg version="1.1" id="Capa_1" xmlns="http://www.w3.org/2000/svg" xmlns:xlink="http://www.w3.org/1999/xlink" x="0px" y="0px"
	 viewBox="0 0 464 464" style="enable-background:new 0 0 464 464;" xml:space="preserve">
<path style="fill:#E6E6E6;" d="M438.224,342.672H25.776C11.601,342.73,0.062,331.287,0,317.112V61.56
	C0.062,47.385,11.601,35.943,25.776,36h412.448c14.175-0.058,25.714,11.385,25.776,25.56v255.552
	C463.938,331.287,452.399,342.73,438.224,342.672z"/>
<path style="fill:#999999;" d="M0,287.432h464v31.24c0,13.255-10.745,24-24,24H24c-13.255,0-24-10.745-24-24V287.432z"/>
<path style="fill:#808080;" d="M209.904,342.672h44.192v77.336h-44.192V342.672z"/>
<g>
	<path style="fill:#0071BC;" d="M160,181.336h-8v-64c0-4.418-3.582-8-8-8s-8,3.582-8,8v64h-32c-4.418,0-8-3.582-8-8v-56
		c0-4.418-3.582-8-8-8s-8,3.582-8,8v56c0,13.255,10.745,24,24,24h32v16c0,4.418,3.582,8,8,8s8-3.582,8-8v-16h8c4.418,0,8-3.582,8-8
		S164.418,181.336,160,181.336z"/>
	<path style="fill:#0071BC;" d="M376,181.336h-8v-64c0-4.418-3.582-8-8-8s-8,3.582-8,8v64h-32c-4.418,0-8-3.582-8-8v-56
		c0-4.418-3.582-8-8-8s-8,3.582-8,8v56c0,13.255,10.745,24,24,24h32v16c0,4.418,3.582,8,8,8s8-3.582,8-8v-16h8c4.418,0,8-3.582,8-8
		S380.418,181.336,376,181.336z"/>
	<path style="fill:#0071BC;" d="M256,109.336h-48c-13.255,0-24,10.745-24,24v64c0,13.255,10.745,24,24,24h48
		c13.255,0,24-10.745,24-24v-64C280,120.081,269.255,109.336,256,109.336z M264,197.336c0,4.418-3.582,8-8,8h-48
		c-4.418,0-8-3.582-8-8v-64c0-4.418,3.582-8,8-8h48c4.418,0,8,3.582,8,8V197.336z"/>
</g>
<path style="fill:#999999;" d="M364.568,428H99.432c-4.418,0-8-3.582-8-8s3.582-8,8-8h265.136c4.418,0,8,3.582,8,8
	S368.986,428,364.568,428z"/>
<g>
</g>
<g>
</g>
<g>
</g>
<g>
</g>
<g>
</g>
<g>
</g>
<g>
</g>
<g>
</g>
<g>
</g>
<g>
</g>
<g>
</g>
<g>
</g>
<g>
</g>
<g>
</g>
<g>
</g>
</svg>
