<svg height="512" viewBox="0 0 64 64" width="512" xmlns="http://www.w3.org/2000/svg"><g id="towers-transmission-transmission_towers-communication-signal" data-name="towers-transmission-transmission towers-communication-signal"><path d="m61 55v6h-22v-6h4 7 7z" fill="#898890"/><path d="m56.34 47.96.66 7.04h-7z" fill="#c6c5ca"/><path d="m55.49 38.9.85 9.06-6.34 7.04v-10z" fill="#cd2a00"/><path d="m54.56 28.94.93 9.96-5.49 6.1v-11z" fill="#c6c5ca"/><path d="m54 23 .56 5.94-4.56 5.06v-11z" fill="#cd2a00"/><path d="m50 19h4v4h-4z" fill="#c6c5ca"/><circle cx="50" cy="10" fill="#ff3051" r="3"/><path d="m50 45v10l-6.34-7.04.85-9.06z" fill="#ebe5dd"/><path d="m50 34v11l-5.49-6.1.93-9.96z" fill="#ff3051"/><path d="m50 23v11l-4.56-5.06.56-5.94z" fill="#ebe5dd"/><path d="m46 19h4v4h-4z" fill="#ff3051"/><path d="m43.66 47.96 6.34 7.04h-7z" fill="#ff3051"/><path d="m25 55v6h-22v-6h4 7 7z" fill="#898890"/><path d="m20.34 47.96.66 7.04h-7z" fill="#cd2a00"/><path d="m19.49 38.9.85 9.06-6.34 7.04v-10z" fill="#c6c5ca"/><path d="m18.56 28.94.93 9.96-5.49 6.1v-11z" fill="#cd2a00"/><path d="m18 23 .56 5.94-4.56 5.06v-11z" fill="#c6c5ca"/><path d="m14 19h4v4h-4z" fill="#cd2a00"/><circle cx="14" cy="10" fill="#ff3051" r="3"/><path d="m14 45v10l-6.34-7.04.85-9.06z" fill="#ff3051"/><path d="m14 34v11l-5.49-6.1.93-9.96z" fill="#ebe5dd"/><path d="m14 23v11l-4.56-5.06.56-5.94z" fill="#ff3051"/><path d="m10 19h4v4h-4z" fill="#ebe5dd"/><path d="m7.66 47.96 6.34 7.04h-7z" fill="#ebe5dd"/><path d="m6.929 17.074a10.007 10.007 0 0 1 0-14.148l-1.418-1.411a12.008 12.008 0 0 0 0 16.97z"/><path d="m21.071 2.926a10.007 10.007 0 0 1 0 14.148l1.418 1.411a12.008 12.008 0 0 0 0-16.97z"/><path d="m8.343 15.657 1.414-1.414a6 6 0 0 1 0-8.486l-1.414-1.414a8 8 0 0 0 0 11.314z"/><path d="m19.657 15.657a8 8 0 0 0 0-11.314l-1.414 1.414a6 6 0 0 1 0 8.486z"/><path d="m25 54h-3.09l-2.91-31.05v-3.95a1 1 0 0 0 -1-1h-3v-4.14a4 4 0 1 0 -2 0v4.14h-3a1 1 0 0 0 -1 1v3.91l-2.91 31.09h-3.09a1 1 0 0 0 -1 1v6a1 1 0 0 0 1 1h22a1 1 0 0 0 1-1v-6a1 1 0 0 0 -1-1zm-5.1 0h-3.65l3.31-3.68zm-1.19-12.74.59 6.36-4.3 4.78v-7.02zm-.26-2.7-3.45 3.83v-8.01l2.77-3.07zm-.93-9.96-2.52 2.8v-7.4h2.09zm-.52-8.6v2h-2v-2zm-5-10a2 2 0 1 1 2 2 2.006 2.006 0 0 1 -2-2zm-1 10h2v2h-2zm-.09 4h2.09v7.4l-2.52-2.8zm-.69 7.3 2.78 3.08v8.01l-3.46-3.84zm-.93 9.96 3.71 4.12v7.02l-4.3-4.78zm-.85 9.06 3.31 3.68h-3.65zm15.56 9.68h-20v-4h20z"/><path d="m42.929 17.074a10.007 10.007 0 0 1 0-14.148l-1.418-1.411a12.008 12.008 0 0 0 0 16.97z"/><path d="m57.071 17.074 1.418 1.411a12.008 12.008 0 0 0 0-16.97l-1.418 1.411a10.007 10.007 0 0 1 0 14.148z"/><path d="m44.343 15.657 1.414-1.414a6 6 0 0 1 0-8.486l-1.414-1.414a8 8 0 0 0 0 11.314z"/><path d="m55.657 15.657a8 8 0 0 0 0-11.314l-1.414 1.414a6 6 0 0 1 0 8.486z"/><path d="m61 54h-3.09l-2.91-31.05v-3.95a1 1 0 0 0 -1-1h-3v-4.14a4 4 0 1 0 -2 0v4.14h-3a1 1 0 0 0 -1 1v3.91l-2.91 31.09h-3.09a1 1 0 0 0 -1 1v6a1 1 0 0 0 1 1h22a1 1 0 0 0 1-1v-6a1 1 0 0 0 -1-1zm-5.1 0h-3.65l3.31-3.68zm-1.19-12.74.59 6.36-4.3 4.78v-7.02zm-.26-2.7-3.45 3.83v-8.01l2.77-3.07zm-.93-9.96-2.52 2.8v-7.4h2.09zm-.52-8.6v2h-2v-2zm-5-10a2 2 0 1 1 2 2 2.006 2.006 0 0 1 -2-2zm-1 10h2v2h-2zm-.09 4h2.09v7.4l-2.52-2.8zm-.69 7.3 2.78 3.08v8.01l-3.46-3.84zm-.93 9.96 3.71 4.12v7.02l-4.3-4.78zm-.85 9.06 3.31 3.68h-3.65zm15.56 9.68h-20v-4h20z"/><path d="m29 9h2v2h-2z"/><path d="m33 9h2v2h-2z"/><path d="m23 31h2v2h-2z"/><path d="m27 31h2v2h-2z"/><path d="m31 31h2v2h-2z"/><path d="m35 31h2v2h-2z"/><path d="m39 31h2v2h-2z"/></g></svg>