<svg height="512" viewBox="0 0 64 64" width="512" xmlns="http://www.w3.org/2000/svg"><g id="satellite-satellite_dish-communictionn-house-home" data-name="satellite-satellite dish-communictionn-house-home"><path d="m61 57v4h-22v-4h3 4 4 4 4z" fill="#898890"/><path d="m61 41v4l-2.97-1.08-8.03-2.92-8.03 2.92-2.97 1.08v-4l11-4 4 1.45 4 1.46z" fill="#806749"/><path d="m58.03 43.92-.03.08v13h-16v-13l-.03-.08 8.03-2.92z" fill="#fee9ab"/><path d="m58 34v5.91l-4-1.46v-4.45z" fill="#a78966"/><path d="m61 57v4h-22v-4h3 4 4 4 4z" fill="#898890"/><path d="m61 41v4l-2.97-1.08-1.03-.37v-2.55l-3-1.09-4-1.46-2-.72 2-.73 4 1.45 4 1.46z" fill="#6a563d"/><path d="m58.03 43.92-.03.08v13h-16v-13l-.03-.08 8.03-2.92z" fill="#fee9ab"/><path d="m58 34v5.91l-2-.73v-5.18z" fill="#806749"/><path d="m39 57h22v4h-22z" fill="#898890"/><path d="m57 57h4v4h-4z" fill="#57565c"/><path d="m58.03 43.92-.03.08v13h-16v-13l-.03-.08 8.03-2.92z" fill="#fee9ab"/><path d="m58.03 43.92-.03.08v13h-4v-13l.03-.08-6.03-2.19 2-.73z" fill="#ffd422"/><path d="m50 49h4v8h-4z" fill="#46f8ff"/><path d="m46 49h4v8h-4z" fill="#46f8ff"/><path d="m25.02 22.98 12.02 12.02a16.949 16.949 0 0 1 -14.04 4.85v-10.85a2.006 2.006 0 0 0 -2-2h-10a2 2 0 0 0 -1.98 1.73 16.994 16.994 0 0 1 3.98-17.77z" fill="#ebe5dd"/><path d="m37.04 35a16.186 16.186 0 0 1 -2.17 1.83l-11.85-11.85-11.85-11.85a16.964 16.964 0 0 1 1.83-2.17l12.02 12.02z" fill="#d9ccbc"/><path d="m27.88 20.12a3 3 0 1 1 2.12.88 2.993 2.993 0 0 1 -2.12-.88z" fill="#ff3051"/><path d="m3 57h26v4h-26z" fill="#a78966"/><path d="m25 57h4v4h-4z" fill="#806749"/><path d="m21 27h-10a2 2 0 0 0 -1.98 1.73 2.452 2.452 0 0 0 -.02.27v28h14v-28a2.006 2.006 0 0 0 -2-2z" fill="#c0ab91"/><path d="m23 29v28h-2v-26a2.006 2.006 0 0 0 -2-2h-10a2.452 2.452 0 0 1 .02-.27 2 2 0 0 1 1.98-1.73h10a2.006 2.006 0 0 1 2 2z" fill="#b39a7c"/><path d="m25.02 40.97a17.942 17.942 0 0 0 12.73-5.26 1.008 1.008 0 0 0 0-1.42l-11.32-11.31 1.55-1.55a4.054 4.054 0 1 0 -1.41-1.41l-1.55 1.55-11.31-11.32a1.008 1.008 0 0 0 -1.42 0 18.019 18.019 0 0 0 -4.27 18.57 1.1 1.1 0 0 0 -.02.18v27h-5a1 1 0 0 0 -1 1v4a1 1 0 0 0 1 1h26a1 1 0 0 0 1-1v-4a1 1 0 0 0 -1-1h-5v-15.08c.34.02.68.05 1.02.05zm4.98-24.97a2 2 0 1 1 -2 2 2.006 2.006 0 0 1 2-2zm-2 42v2h-24v-2zm-15.71-22.29a17.861 17.861 0 0 0 9.71 4.99v15.3h-12v-23.1a18.9 18.9 0 0 0 2.29 2.81zm-2.22-7.07a1.014 1.014 0 0 1 .93-.64h10a1 1 0 0 1 1 1v9.67a15.9 15.9 0 0 1 -11.93-10.03zm10.93-2.64h-10a2.986 2.986 0 0 0 -1.59.46 16.053 16.053 0 0 1 3.61-14.07l22.59 22.59a15.982 15.982 0 0 1 -11.61 3.94v-9.92a3.009 3.009 0 0 0 -3-3z"/><path d="m44 18h2a16.019 16.019 0 0 0 -16-16v2a14.015 14.015 0 0 1 14 14z"/><path d="m40 18h2a12.013 12.013 0 0 0 -12-12v2a10.011 10.011 0 0 1 10 10z"/><path d="m36 18h2a8.009 8.009 0 0 0 -8-8v2a6.006 6.006 0 0 1 6 6z"/><path d="m60.66 45.94a.974.974 0 0 0 .34.06 1 1 0 0 0 1-1v-4a.992.992 0 0 0 -.66-.94l-2.34-.85v-5.21a1 1 0 0 0 -1-1h-4a1 1 0 0 0 -1 1v3.03l-2.66-.97a.993.993 0 0 0 -.68 0l-11 4a.992.992 0 0 0 -.66.94v4a1 1 0 0 0 .43.82.985.985 0 0 0 .91.12l1.66-.6v10.66h-2a1 1 0 0 0 -1 1v4a1 1 0 0 0 1 1h22a1 1 0 0 0 1-1v-4a1 1 0 0 0 -1-1h-2v-10.66zm-5.66-10.94h2v3.48l-2-.73zm5 23v2h-20v-2zm-6-10h-8a1 1 0 0 0 -1 1v7h-2v-11.39l7-2.55 7 2.55v11.39h-2v-7a1 1 0 0 0 -1-1zm-1 2v6h-2v-6zm-4 0v6h-2v-6zm1.34-9.94a.993.993 0 0 0 -.68 0l-9.66 3.51v-1.87l10-3.64 10 3.64v1.87z"/><path d="m49 44h2v2h-2z"/><path d="m17 31h2v2h-2z"/></g></svg>