<?xml version="1.0" encoding="iso-8859-1"?>
<!-- Generator: Adobe Illustrator 19.0.0, SVG Export Plug-In . SVG Version: 6.00 Build 0)  -->
<svg version="1.1" id="Layer_1" xmlns="http://www.w3.org/2000/svg" xmlns:xlink="http://www.w3.org/1999/xlink" x="0px" y="0px"
	 viewBox="0 0 508 508" style="enable-background:new 0 0 508 508;" xml:space="preserve">
<circle style="fill:#324A5E;" cx="254" cy="254" r="254"/>
<path style="fill:#FF7058;" d="M339.6,275.2l-0.4,0.4l0,0l0,0l0,0c-0.4,0-0.8,0.8-1.6,1.2c-0.8,0.8-1.6,1.6-2.4,2.8
	c-0.8,1.2-2,2.4-3.2,4c-0.4,0.8-0.8,1.6-1.6,2.8c-0.4,0.8-0.8,2-1.6,2.8c-0.8,2-1.6,4.4-2.4,6.8c-0.4,1.2-0.8,2.4-0.8,4
	c0,0.8-0.4,1.2-0.4,2v0.4l-0.4,0.8v0.8l-0.4,1.2v0.8l-0.4,1.2l-0.8,2l-0.4,1.2l-0.4,0.8l-0.8,1.6c-1.2,2.4-2,4.4-3.2,6.4
	c-4.8,8.4-11.2,14.4-17.2,19.6s-12,8.8-17.2,12c-1.2,0.8-2.4,1.2-3.2,2c-4.4,3.2-9.6,6-15.2,7.2l0,0c-2.4,0.8-5.2,1.2-7.6,0.8
	c-0.4,0-0.8,0-1.2,0h-55.6c-21.6,0-39.2-17.6-39.2-39.2V191.2c0-7.6,6.4-14,14-14s14,6.4,14,14v54h7.2v-64c0-4,1.6-7.2,4-10
	c2.4-2.4,6-4,10-4c7.6,0,14,6.4,14,14v64h7.6v-84.8c0-7.6,6.4-14,14-14c7.6,0,14,6.4,14,14v84.8h7.2v-74.4c0-7.6,6.4-14,14-14
	s14,6.4,14,14v105.6c0.8-1.6,2-3.6,2.8-5.2s2-3.2,3.2-4.4c1.2-1.6,2-2.8,3.2-4c2-2.4,4.4-4.8,6.4-6.4c2-2,4-3.2,5.6-4.4
	s3.2-2,4.4-2.8c0.4-0.4,1.2-0.8,1.6-0.8s0.4,0,0.4,0c6.8-3.2,15.6-0.4,20.4,6.4C348.4,261.6,346.8,271.2,339.6,275.2z"/>
<path style="fill:#FFFFFF;" d="M388,120c-74-74-194-74-268,0s-74,194,0,268s194,74,268,0S462,194,388,120z M360,148
	c53.2,53.6,58,136.8,14,195.6L164.4,134C223.2,90,306.4,94.8,360,148z M148,360c-53.2-53.6-58-136.8-14-195.6L343.6,374
	C284.8,418,201.6,413.2,148,360z"/>
<g>
</g>
<g>
</g>
<g>
</g>
<g>
</g>
<g>
</g>
<g>
</g>
<g>
</g>
<g>
</g>
<g>
</g>
<g>
</g>
<g>
</g>
<g>
</g>
<g>
</g>
<g>
</g>
<g>
</g>
</svg>
