<svg height="464pt" viewBox="-52 0 464 464" width="464pt" xmlns="http://www.w3.org/2000/svg"><path d="m88 56v-40c0-8.835938 7.164062-16 16-16s16 7.164062 16 16v40zm0 0" fill="#d4eded"/><path d="m184 56v-40c0-8.835938 7.164062-16 16-16s16 7.164062 16 16v40zm0 0" fill="#d4eded"/><path d="m203.199219 288h-102.398438c-7.472656 0-13.945312-5.171875-15.601562-12.457031l-32.726563-144c-1.078125-4.738281.058594-9.714844 3.089844-13.515625 3.03125-3.800782 7.625-6.019532 12.484375-6.027344h167.90625c4.867187 0 9.46875 2.210938 12.507813 6.015625 3.035156 3.804687 4.175781 8.78125 3.097656 13.527344l-32.726563 144c-1.65625 7.296875-8.148437 12.472656-15.632812 12.457031zm0 0" fill="#f8cf26"/><path d="m113.542969 256-25.445313-112h127.804688l-25.445313 112zm0 0" fill="#e8b542"/><path d="m88 56h32v56h-32zm0 0" fill="#666"/><path d="m184 56h32v56h-32zm0 0" fill="#666"/><path d="m128 168h48v16h-48zm0 0" fill="#f29200"/><path d="m136 200h32v16h-32zm0 0" fill="#f29200"/><path d="m32 464v-32c0-8.835938 7.164062-16 16-16h264c26.507812 0 48-21.492188 48-48s-21.492188-48-48-48h-128c-8.835938 0-16-7.164062-16-16v-16h-32v24c0 22.089844 17.910156 40 40 40h136c8.835938 0 16 7.164062 16 16s-7.164062 16-16 16h-272c-22.089844 0-40 17.910156-40 40v40zm0 0" fill="#ccc"/></svg>